<?xml version="1.0" encoding="UTF-8"?><svg id="Layer_1" xmlns="http://www.w3.org/2000/svg" viewBox="0 0 1920 1080"><defs><style>.cls-1,.cls-2,.cls-3,.cls-4,.cls-5{stroke-width:0px;}.cls-2{fill:#d8ffd9;}.cls-3{fill:#aaaeff;}.cls-4{fill:#fffcf6;}.cls-5{fill:#ffd2f6;}</style></defs><rect class="cls-4" x="-17.5" y="-26.5" width="1954" height="1131"/><path class="cls-1" d="M1936-26v1130H-17V-26h1953M1937-27H-18v1132h1955V-27h0Z"/><path class="cls-3" d="M.5,145.5c17.67-.4,43.84,1.4,71,14,60.63,28.13,62.75,80.65,122,142,52.14,53.99,74.85,38.54,129,89,19.69,18.35,74.48,73.4,96,162,30.86,127.06-30.21,230.07-40,246-14.65,23.84-70.8,112.13-182,141-75.24,19.54-154.07,6.25-196-18-130.62-75.56-135.71-392.21,0-776Z"/><path class="cls-5" d="M416.5,1101.5c-1.3-18.28,39.21-46.56,60-58,42.83-23.56,65.59-10.63,128-27,12.14-3.18,63.08-17.26,114-53,44-30.88,42.57-46.07,91-89,47.71-42.3,81.06-71.87,131-82,65.15-13.22,136.67,11.08,182,53,43.41,40.15,28.25,64.49,74,107,50.18,46.63,111.55,57.42,149,64,78.6,13.82,84.25-9.55,188-4,113.87,6.09,177.52,38.01,191,45,35.16,18.23,93.43,48.44,91,71-11.53,106.96-1391.6,77.09-1399-27Z"/><path class="cls-2" d="M856.5-51.5c-10.81,36.92,10.97,86.12,35,115,54.54,65.54,130.21,37.91,278,75,168.83,42.37,162.23,101.54,282,107,126.23,5.75,162.68-58.66,249-26,70.24,26.58,107.6,92.5,147,162,75.66,133.47,67.7,227.88,89,229,41.11,2.17,194.12-343.11,66-574C1790.26-346.01,908.83-230.14,856.5-51.5Z"/></svg>