<svg width="70" height="70" viewBox="0 0 70 70" fill="none" xmlns="http://www.w3.org/2000/svg">
<g clip-path="url(#clip0_0_1)">
<path d="M35 0C25.4854 0 24.2996 0.0459433 20.576 0.203463C16.8371 0.387236 14.308 0.966996 12.0765 1.83335C9.74098 2.71507 7.62584 4.09555 5.87855 5.87855C4.09057 7.62176 2.70933 9.73807 1.83335 12.0765C0.966996 14.308 0.387236 16.8371 0.203463 20.576C0.0350044 24.3018 0 25.4854 0 35C0 44.5146 0.0459433 45.7004 0.203463 49.424C0.387236 53.152 0.966996 55.692 1.83335 57.9235C2.71507 60.259 4.09555 62.3742 5.87855 64.1215C7.62176 65.9094 9.73807 67.2907 12.0765 68.1666C14.308 69.0221 16.848 69.6128 20.576 69.7965C24.3018 69.965 25.4854 70 35 70C44.5146 70 45.7004 69.9541 49.424 69.7965C53.152 69.6128 55.692 69.0199 57.9235 68.1666C60.259 67.2849 62.3742 65.9045 64.1215 64.1215C65.9117 62.3801 67.2933 60.2633 68.1666 57.9235C69.0221 55.692 69.6128 53.152 69.7965 49.424C69.965 45.6982 70 44.5146 70 35C70 25.4854 69.9541 24.2996 69.7965 20.576C69.6128 16.848 69.0199 14.2949 68.1666 12.0765C67.2849 9.74098 65.9045 7.62584 64.1215 5.87855C62.3801 4.08827 60.2633 2.70667 57.9235 1.83335C55.692 0.966996 53.152 0.387236 49.424 0.203463C45.6982 0.0350044 44.5146 0 35 0ZM35 6.30079C44.344 6.30079 45.4597 6.34673 49.1527 6.50425C52.5591 6.66396 54.4143 7.23278 55.646 7.71409C57.1688 8.27618 58.547 9.17082 59.6803 10.3329C60.8403 11.4614 61.7316 12.8364 62.2881 14.3562C62.7694 15.5879 63.3382 17.4431 63.4979 20.8495C63.6555 24.5424 63.7014 25.6604 63.7014 35.0022C63.7014 44.344 63.6555 45.4619 63.4848 49.1549C63.301 52.5613 62.7322 54.4165 62.2531 55.6482C61.5902 57.2912 60.8507 58.4398 59.63 59.6825C58.4928 60.8372 57.1155 61.7275 55.5957 62.2903C54.3793 62.7716 52.4978 63.3404 49.0783 63.5001C45.3657 63.6576 44.2718 63.7036 34.9037 63.7036C25.5357 63.7036 24.444 63.6576 20.727 63.487C17.3206 63.3032 15.4413 62.7344 14.2096 62.2553C12.5469 61.5924 11.4071 60.8529 10.1863 59.6321C8.95456 58.4004 8.17133 57.2278 7.56751 55.5979C7.07745 54.3815 6.51738 52.5 6.33579 49.0805C6.21109 45.4116 6.15202 44.274 6.15202 34.9497C6.15202 25.6298 6.21109 24.4899 6.33579 20.7751C6.51738 17.3556 7.07745 15.4785 7.56751 14.2577C8.17133 12.5928 8.95674 11.4552 10.1863 10.2235C11.4049 9.00488 12.5469 8.21728 14.2096 7.60032C15.4413 7.1212 17.2747 6.55238 20.6942 6.38174C24.4068 6.24828 25.5007 6.20015 34.8556 6.20015L35 6.30079ZM35 17.0362C32.6401 17.0353 30.3032 17.4995 28.1229 18.4022C25.9425 19.3049 23.9613 20.6284 22.2927 22.297C20.624 23.9657 19.3005 25.9468 18.3978 28.1272C17.4951 30.3076 17.031 32.6445 17.0318 35.0044C17.031 37.3642 17.4951 39.7011 18.3978 41.8815C19.3005 44.0619 20.624 46.0431 22.2927 47.7117C23.9613 49.3804 25.9425 50.7039 28.1229 51.6066C30.3032 52.5092 32.6401 52.9734 35 52.9726C37.3599 52.9734 39.6968 52.5092 41.8771 51.6066C44.0575 50.7039 46.0387 49.3804 47.7073 47.7117C49.376 46.0431 50.6995 44.0619 51.6022 41.8815C52.5049 39.7011 52.969 37.3642 52.9682 35.0044C52.969 32.6445 52.5049 30.3076 51.6022 28.1272C50.6995 25.9468 49.376 23.9657 47.7073 22.297C46.0387 20.6284 44.0575 19.3049 41.8771 18.4022C39.6968 17.4995 37.3599 17.0353 35 17.0362ZM35 46.6718C28.5504 46.6718 23.3326 41.4539 23.3326 35.0044C23.3326 28.5548 28.5504 23.337 35 23.337C41.4496 23.337 46.6674 28.5548 46.6674 35.0044C46.6674 41.4539 41.4496 46.6718 35 46.6718ZM57.8929 16.3186C57.8917 17.4336 57.4479 18.5026 56.6591 19.2906C55.8702 20.0787 54.8008 20.5213 53.6858 20.5213C53.1344 20.5213 52.5885 20.4127 52.0791 20.2017C51.5698 19.9907 51.107 19.6815 50.7171 19.2917C50.3272 18.9018 50.018 18.439 49.807 17.9296C49.596 17.4202 49.4874 16.8743 49.4874 16.323C49.4874 15.7716 49.596 15.2257 49.807 14.7163C50.018 14.207 50.3272 13.7442 50.7171 13.3543C51.107 12.9645 51.5698 12.6552 52.0791 12.4442C52.5885 12.2332 53.1344 12.1246 53.6858 12.1246C55.9982 12.1246 57.8929 14.0061 57.8929 16.3186Z" fill="white"/>
</g>
<defs>
<clipPath id="clip0_0_1">
<rect width="70" height="70" fill="white"/>
</clipPath>
</defs>
</svg>
