<svg width="70" height="70" viewBox="0 0 70 70" fill="none" xmlns="http://www.w3.org/2000/svg">
<g clip-path="url(#clip0_0_13)">
<path d="M35.0504 0C15.692 0 0 15.6542 0 34.9661C0 49.7781 9.24065 62.4245 22.2815 67.5171C21.9723 64.7477 21.6982 60.5103 22.3955 57.4915C23.0358 54.757 26.5071 40.1156 26.5071 40.1156C26.5071 40.1156 25.4567 38.0068 25.4567 34.9202C25.4567 30.0659 28.2899 26.4324 31.7963 26.4324C34.7895 26.4324 36.239 28.6659 36.239 31.3544C36.239 34.3514 34.3312 38.8403 33.3378 42.9988C32.5045 46.4749 35.0855 49.31 38.5239 49.31C44.7494 49.31 49.5451 42.7582 49.5451 33.3014C49.5451 24.9602 43.5148 19.104 34.9035 19.104C24.9327 19.104 19.0843 26.579 19.0843 34.2683C19.0843 37.2762 20.2378 40.5116 21.6894 42.2551C21.9745 42.6073 22.0096 42.9157 21.9285 43.2701C21.6653 44.3639 21.071 46.768 20.957 47.2471C20.7969 47.8968 20.4549 48.0324 19.7817 47.7262C15.4179 45.7092 12.6659 39.3281 12.6659 34.1786C12.6659 23.162 20.707 13.0204 35.8289 13.0204C47.9816 13.0204 57.4372 21.6788 57.4372 33.2095C57.4372 45.2761 49.8192 54.9823 39.2212 54.9823C35.6688 54.9823 32.3335 53.147 31.1581 50.9594L28.9653 59.2656C28.1781 62.3085 26.0291 66.1236 24.5796 68.4381C27.8689 69.44 31.3292 70 34.9605 70C54.2861 70 70 54.3567 70 35.0339C70 15.7221 54.2839 0.0787525 34.9605 0.0787525L35.0504 0Z" fill="white"/>
</g>
<defs>
<clipPath id="clip0_0_13">
<rect width="70" height="70" fill="white"/>
</clipPath>
</defs>
</svg>
