<?xml version="1.0" encoding="UTF-8"?><svg id="Layer_1" xmlns="http://www.w3.org/2000/svg" viewBox="0 0 1920 1080"><defs><style>.cls-1,.cls-2,.cls-3,.cls-4,.cls-5,.cls-6{stroke-width:0px;}.cls-2{fill:#d8ffd9;}.cls-3{fill:#aaaeff;}.cls-4{fill:#fffcf6;}.cls-5{fill:#fffad5;}.cls-6{fill:#ffd2f6;}</style></defs><rect class="cls-4" x=".5" y=".5" width="1919" height="1079"/><path class="cls-1" d="M1919,1v1078H1V1h1918M1920,0H0v1080h1920V0h0Z"/><path class="cls-6" d="M335.5-29.5c-.87,24.23,2.1,57.43,24,81,45.21,48.66,135.02,17.46,237,11,130.23-8.24,145.39,32.41,324,60,37.94,5.86,216.46,31.7,437-4,161.24-26.1,410.64-95.74,406-137-4.83-43.01-287.43-69.54-1428-11Z"/><path class="cls-2" d="M1947,398c-5.09-18.53-16.48-57.5-49-73-42.64-20.32-109.33,5.58-142,49-44.42,59.04-7.3,125.7-4,240,4.12,142.56-77.23,166.55-61,281,2.89,20.38,14.6,95.54,75,158,54.03,55.88,159.29,114.28,227,81,137.57-67.62,27.56-468.18-46-736Z"/><path class="cls-3" d="M-21,913c49.23-27.87,103.87,25.63,235,32,60.15,2.92,88.59-6.39,160-17,26.51-3.94,208.68-30.08,390-12,181.47,18.09,188.98,63.22,369,70,114.57,4.32,126.57-13.4,215-3,141.49,16.63,321.43,86.74,319,137-7.2,148.72-1620.52,322.69-1735-9-19.89-57.61-7.25-167.29,47-198Z"/><path class="cls-5" d="M20-25c28.08-1.57,55.96,74.31,87,158.81,21.97,59.79,47.39,129,43,221.43-5.17,108.84-48.63,185.36-78,237.09-36.14,63.65-91.13,160.49-125,149.86C-140.3,714.79-66.25-20.16,20-25Z"/></svg>