<?xml version="1.0" encoding="UTF-8"?><svg id="Layer_18" xmlns="http://www.w3.org/2000/svg" viewBox="0 0 795 294"><defs><style>.cls-1{fill:#c69c6d;}.cls-1,.cls-2,.cls-3,.cls-4,.cls-5{stroke-width:0px;}.cls-2{fill:#a67c52;}.cls-3{fill:#8c6239;}.cls-4{fill:#fff;}.cls-5{fill:#ffd9aa;}</style></defs><rect class="cls-2" x="156" y="72" width="462" height="138" rx="15.83" ry="15.83"/><path class="cls-1" d="m602.17,78c5.42,0,9.83,4.41,9.83,9.83v106.34c0,5.42-4.41,9.83-9.83,9.83H171.83c-5.42,0-9.83-4.41-9.83-9.83v-106.34c0-5.42,4.41-9.83,9.83-9.83h430.34m0-12H171.83c-12.06,0-21.83,9.77-21.83,21.83v106.34c0,12.06,9.77,21.83,21.83,21.83h430.34c12.06,0,21.83-9.77,21.83-21.83v-106.34c0-12.06-9.77-21.83-21.83-21.83h0Z"/><path class="cls-4" d="m306.8,171.01v-61.23h13.16c2.41,0,4.53.32,6.36.95,1.83.63,3.5,1.75,4.99,3.35,1.49,1.61,2.52,3.48,3.1,5.63.57,2.15.86,5.06.86,8.73,0,2.75-.16,5.07-.47,6.97-.32,1.89-.99,3.67-2.02,5.33-1.2,2.01-2.81,3.57-4.82,4.69-2.01,1.12-4.64,1.68-7.91,1.68h-4.47v23.91h-8.77Zm8.77-52.98v20.81h4.21c1.78,0,3.15-.26,4.13-.77.97-.52,1.69-1.23,2.15-2.15.46-.86.73-1.92.82-3.18.09-1.26.13-2.67.13-4.21,0-1.43-.03-2.79-.09-4.08-.06-1.29-.32-2.42-.77-3.4-.46-.97-1.15-1.72-2.06-2.24-.92-.52-2.24-.77-3.96-.77h-4.56Z"/><path class="cls-4" d="m352.55,171.01v-61.23h8.77v52.46h17.37v8.77h-26.14Z"/><path class="cls-4" d="m391.17,171.01l13.67-61.23h7.31l13.67,61.23h-8.77l-2.58-13.16h-11.95l-2.58,13.16h-8.77Zm21.67-21.41l-4.3-22.19h-.17l-4.3,22.19h8.77Z"/><path class="cls-4" d="m444.32,171.01v-25.89l-12.04-35.35h9.29l7.05,24.34h.17l7.05-24.34h9.29l-12.04,35.35v25.89h-8.77Z"/><path class="cls-5" d="m180,97c-.2-2.81,24.08-7.7,47-9,30.72-1.74,61.05,2.84,61,6-.05,3.49-37.2,5.52-55,6-18.54.5-52.77.32-53-3Z"/><path class="cls-3" d="m575,78h31l5,5,2,8.91v102.78l-4.09,5.31-3.91,3h-171l83-48,26-32,12-27,.12,2.21c1.51-11.01,8.77-20.21,19.88-20.21Z"/></svg>