<?xml version="1.0" encoding="UTF-8"?><svg id="Layer_24" xmlns="http://www.w3.org/2000/svg" viewBox="0 0 528 648"><defs><style>.cls-1{fill:#603813;}.cls-1,.cls-2,.cls-3{stroke-width:0px;}.cls-2{fill:#754c24;}.cls-3{fill:#42210b;}</style></defs><path class="cls-3" d="m111.99,431.55c12.71,10.82,27.67,12.73,35.97,14.8,40.67,10.13,39.67,2.52,92.92,7.97,54.66,5.59,28.43,6.92,115.9-11.38,15.1-3.16,42.18-2.64,52.95-17.07,12.83-17.18,3.67-57.92-6.99-64.88-13.07-8.53-20.63-15.96-83.93,6.83-114.19,41.11-129.43,11.78-142.88,5.69,0,0-4.97-2.64-9.48-4.69-12.87-5.86-26.6-12.12-39.48-8.97-14.86,3.64-30.94,20.4-30.97,39.84-.03,17.46,12.91,29.25,15.99,31.87Z"/><path class="cls-1" d="m163.94,373.5c-4.15-.36-11.05-.82-17.98,3.41-10.63,6.49-14.26,19.71-16.99,29.59-2.26,8.19-6.22,22.6,0,29.59,1.38,1.55,2.84,2.27,5.99,3.41,14.6,5.31,23.98,5.69,23.98,5.69,12.69.52,25.28,2.95,37.97,3.41,53.34,1.94,46.16,2.48,56.95,2.28,23.28-.44,40.49-2.65,54.95-4.55,27.56-3.62,8.57-3.15,54.95-12.52,6.66-1.34,12.48-2.45,16.99-7.97,8.61-10.53,8.01-31.73-1-44.39-8.41-11.81-21.95-13.11-28.98-13.66-28.67-2.26-36.11,18.72-67.94,25.04-21.81,4.33-40.73-1.06-56.95-5.69-11.56-3.3-34.57-11.28-61.95-13.66Z"/><path class="cls-3" d="m143.29,370.24c9.97,10.82,21.7,12.73,28.21,14.8,31.9,10.13,31.12,2.52,72.89,7.97,42.88,5.59,22.3,6.92,90.91-11.38,11.84-3.16,33.08-2.64,41.54-17.07,10.06-17.18,2.88-57.92-5.49-64.88-10.25-8.53-16.18-15.96-65.83,6.83-89.57,41.11-101.53,11.78-112.07,5.69,0,0-3.9-2.64-7.43-4.69-10.09-5.86-20.86-12.12-30.97-8.97-11.66,3.64-24.27,20.4-24.3,39.84-.02,17.46,10.13,29.25,12.54,31.87Z"/><path class="cls-1" d="m182.13,318.43c-3.31-.32-8.81-.74-14.33,3.06-8.47,5.82-11.37,17.67-13.54,26.53-1.8,7.35-4.96,20.26,0,26.53,1.1,1.39,2.26,2.03,4.78,3.06,11.63,4.76,19.11,5.1,19.11,5.1,10.11.47,20.14,2.65,30.25,3.06,42.51,1.74,36.78,2.22,45.38,2.04,18.55-.4,32.26-2.38,43.79-4.08,21.96-3.25,6.83-2.83,43.79-11.22,5.3-1.21,9.94-2.2,13.54-7.14,6.86-9.44,6.38-28.45-.8-39.8-6.7-10.59-17.49-11.75-23.09-12.24-22.85-2.03-28.77,16.78-54.14,22.45-17.38,3.88-32.45-.95-45.38-5.1-9.21-2.95-27.55-10.12-49.36-12.24Z"/><path class="cls-3" d="m256.79,180.02c-1.65.46-.11,8.43-2.27,16.73-1.29,4.97-4.19,11.14-15.89,20.91-11.64,9.73-16.79,10.32-31.77,19.52-14.26,8.76-21.39,13.14-27.23,20.91-1.54,2.05-17.45,23.54-13.62,41.82,5.81,27.7,53.61,32.34,79.43,34.85,34.88,3.39,70.44,6.85,83.97-19.52,8.25-16.08,6.65-40.05-2.27-54.37-12.55-20.15-42.72-26.25-57.87-16.73-2.29,1.44,22.18-1.97,18.57-4.61-3.44-2.52-15.99,3.03-16.99-4.04-6.47-45.75-3.14-28.93-8.39-44.33-2.04-5.97-4.25-11.55-5.67-11.15Z"/><path class="cls-1" d="m255.94,209.93l-1.68,3.3-18.38,13.47-23.98,16.37-16.07,15.17-12.9,22.69v14.77l12.99,19,21.98,8.19,36.36,9.64h28.93l28.62-9.64,11.99-8.19,5.41-16.56v-15.33l-6.4-19.28-8.99-9.21-11.99-7.16-18.98-3.07-11.87.43-12.11,4.69-12.99,11.26,10.2-12.63,11.78-7.84-4-15.35-3-14.32h0c-.75-2.3-3.83-2.55-4.92-.4Z"/><path class="cls-2" d="m245.87,276.75c6.87-2.93,11.24-1.14,17.98-1.14,12.08,0,22-5.68,27.98-9.11,9.78-5.61,11.69-9.95,16.99-9.11,5.69.91,11.3,7.19,11.99,13.66,1.51,14.17-20.93,26.27-24.98,28.46-17.28,9.32-43.68,13.76-53.95,0-2.37-3.17-6.11-10.3-4-15.94,1.5-4,5.38-5.72,7.99-6.83Z"/><path class="cls-2" d="m284.84,350.73c15.4.9,23.1,1.35,29.97-2.28,1.93-1.02.7-.65,15.99-12.52,9.44-7.33,11.53-8.73,13.99-7.97,5.44,1.69,9.13,12.92,6.99,21.63-2.35,9.57-11.17,13.8-17.98,17.07-11.84,5.69-22.03,5.23-36.97,4.55-8.3-.37-15.19-2.15-28.98-5.69-5.82-1.5-10.74-2.98-10.99-5.69-.29-3.12,5.76-6.2,6.99-6.83,7.23-3.67,13.28-2.72,20.98-2.28Z"/><path class="cls-2" d="m341.79,397.4c-11.18.64-18.11,4.26-24.98,6.83-1.13.42-22.43,8.13-45.96,4.55-10.31-1.57-10.24-3.66-23.98-5.69-14.17-2.09-14.14.15-25.98-2.28-9.15-1.88-14.49-4.31-16.99-1.14-2.52,3.2-.22,9.65,0,10.24,2.32,6.3,7.92,10.12,17.98,13.66,16,5.63,29.51,5.72,33.97,5.69,14.9-.11,25.34-2.26,41.96-5.69,16.85-3.48,27.64-6.91,37.97-11.38,5.19-2.25,20.67-8.95,19.98-12.52-.59-3.04-12.61-2.35-13.99-2.28Z"/></svg>