<?xml version="1.0" encoding="UTF-8"?><svg id="Layer_23" xmlns="http://www.w3.org/2000/svg" viewBox="0 0 528 651"><defs><style>.cls-1{fill:#4d4d4d;}.cls-1,.cls-2,.cls-3,.cls-4,.cls-5,.cls-6,.cls-7{stroke-width:0px;}.cls-2{fill:gray;}.cls-3{fill:#ccc;}.cls-4{fill:#b3b3b3;}.cls-5{fill:#666;}.cls-6{fill:#999;}.cls-7{fill:#e6e6e6;}</style></defs><path class="cls-1" d="m168.31,384.46c2.65-36.4,20.03-63.41,26.23-73.09,62.96-98.35,59.63-107.32,73.22-109.11,45.14-5.94,90.82,91.79,120.21,154.66,31.46,67.32,24.18,82.49,20.76,87.92-22.07,35.1-105.2,17.63-163.92,5.3-42.65-8.96-66.42-20.48-74.31-40.25-.73-1.82-3.39-8.9-2.19-25.42Z"/><path class="cls-5" d="m98.38,327.38c3.41-2.7,17.71-13.53,44.57-15.23,5.03-.32,23.78-1.15,55.93,10.54,19.82,7.21,40.08,14.58,63.8,33.97,24.45,19.99,36.69,39.88,61.18,79.65,9.36,15.2,14.81,25.78,12.24,33.97-3.09,9.81-16.2,11.33-34.96,11.71-50.08,1.01-63.37-7.71-97.88-7.03-27.18.54-32.05,6.24-63.8,4.69-34.84-1.71-44.68-9.35-50.69-17.57-8.62-11.79-10.53-26.39-13.98-52.71-2.86-21.8-4.82-36.76.87-52.71,5.62-15.75,15.55-23.61,22.72-29.28Z"/><path class="cls-2" d="m84,438c.13,1.74.36,5.06,2,9,4.28,10.3,14.18,15.11,16,16,9.89,4.81,20.49,3.08,38-2,27.53-7.98,32.2-12.65,57-21,24.3-8.18,31.36-7.59,48-17,15.34-8.67,21.61-16.11,25-24,1.26-2.92,4.95-11.41,3-22-.25-1.38-1-4.98-3-9-4.42-8.91-11.97-13.89-27-22-12.72-6.86-19.08-10.3-30-15-14.91-6.43-23.57-10.16-36-13-12.25-2.8-24.83-5.68-41-3-6.9,1.14-23.1,4.04-38,17-4,3.48-13.81,12.22-19,27-3.14,8.95-3.09,15.84-3,27,.18,22.97,6.14,27.97,8,52Z"/><path class="cls-5" d="m270,218c7.93-1.78,15.04,3.22,19,6,1.87,1.32,13.55,9.79,17,25,4.51,19.92-8.37,36.92-16,47-5.43,7.17-16.43,21.69-36,27-2.68.73-28.02,7.3-37-5-4.45-6.1-2.92-14.16-2-19,3.46-18.2,15.8-18.46,27-41,4.96-9.98,5.83-16.54,14-28,6.2-8.69,10.14-11.13,14-12Z"/><path class="cls-6" d="m86,410c-9.96-7.65-.99-33.27,0-36,1.57-4.36,8.33-21.72,28-36,12.8-9.29,44.21-26.82,59-14,8.36,7.25,8.23,21.45,6,30-4.96,19-24.74,27.23-29,29-18.75,7.8-27.77-.51-38,9-8.13,7.57-8.42,18.4-17,20-.24.04-5.22.9-9-2Z"/><path class="cls-2" d="m272,232c-8.52,1.28-12.68,17.75-14,23-2.64,10.45-.66,14.13-5,20-4.11,5.56-9.58,7.24-9,10,.64,3.06,7.97,3.88,9,4,8.54.96,19.77-2.15,27-11,6.19-7.57,6.63-15.91,7-23,.31-5.8.51-11.1-3-16-.29-.41-5.81-7.93-12-7Z"/><path class="cls-4" d="m152,330c-11.38.15-19.58,5.11-26,9-6.31,3.82-11.81,7.15-16,14-.41.68-8.66,14.41-4,20,5.42,6.5,25.23-1.71,35-7,15.09-8.17,32.22-23.47,29-31-2.22-5.2-13.48-5.06-18-5Z"/><path class="cls-3" d="m273,243c-4.4.46-6.87,4.95-8,7-1.55,2.81-1.1,3.71-3,13-1.23,6.02-1.78,7.42-1,8,1.72,1.29,7.46-3.26,11-7,1.09-1.15,11.51-12.16,8-18-1.38-2.29-4.57-3.25-7-3Z"/><path class="cls-7" d="m152,336c-4.07-.86-6.86.65-16,5-10.58,5.04-12.99,5.93-14,9-.7,2.12-.85,5.62,1,7,2.68,2,7.12-2.28,22-10,7.71-4,12.29-5.84,12-8-.27-1.99-4.51-2.9-5-3Z"/></svg>