<?xml version="1.0" encoding="UTF-8"?><svg id="Layer_22" xmlns="http://www.w3.org/2000/svg" viewBox="0 0 548 659"><defs><style>.cls-1{fill:#010508;}.cls-1,.cls-2{stroke:#fff;stroke-miterlimit:10;}.cls-2{fill:#fffbdf;}.cls-3{fill:#3c4447;}.cls-3,.cls-4{stroke-width:0px;}.cls-4{fill:#ffc88a;}</style></defs><path class="cls-1" d="m113.82,325.53c.18-1.39-.77-3.4,3.72-11.15,3.24-5.6,4.78-6.96,7.44-11.15,5.36-8.42,3.51-9.72,7.44-14.87,3.18-4.17,5.37-4.6,14.88-11.15,8.23-5.66,7.85-6.2,14.88-11.15,12.69-8.93,19.04-13.39,26.05-14.87,13.23-2.78,17.17,4.36,29.77,0,7.24-2.51,7.1-5.27,14.88-7.43,2.01-.56,5.88-1.45,22.33,0,12.93,1.14,19.39,1.71,26.05,3.72,9.54,2.88,8.98,4.69,18.61,7.43,9.41,2.69,10.64,1.16,22.33,3.72,6.35,1.39,14.14,3.1,22.33,7.43,5.03,2.66,5.9,4.04,18.61,14.87,17.56,14.97,19.29,15.24,26.05,22.3,5.68,5.94,10.35,10.84,14.88,18.58,6.15,10.51,8.13,19.6,11.16,33.45,1.97,8.99,3.53,16.13,3.72,26.02.13,6.77.25,17.42-3.72,29.74-4.47,13.87-8.72,13.05-14.88,29.74-4.59,12.43-2.78,14.36-7.44,22.3-6.13,10.42-14.62,16.21-18.61,18.58-6.99,4.17-12.28,5.09-22.33,7.43-13.77,3.21-27.28,7.48-40.93,11.15-30.82,8.3-29.18,9.01-40.93,11.15-3.79.69-14.93,1.7-37.21,3.72-26.34,2.38-32.54,2.62-40.93,0-3.28-1.03-8.39-3.16-18.61-7.43-8.37-3.5-11.38-4.98-14.88-7.43-3.89-2.73-8.06-5.66-11.16-11.15-3.4-6.01-3.63-11.73-3.72-14.87-.28-9.49,2.93-16.68,3.72-18.58,6.8-16.35-2.39-32.57-11.16-92.92-1.29-8.87-11.44-44.25-14.88-33.45-6.08,19.05-10.88,23.6-7.44-3.72Z"/><path class="cls-2" d="m202.75,271.43c10.52-7.22,31.18-1.81,34.88,0,23.25,11.36,12.49,11.18,24.42,14.23,9.99,2.56,4.66,7.8,17.44,14.23,5.69,2.86,15.27,7.68,20.93,17.79,5.52,9.86,1.16,13.76,6.98,24.91,5.64,10.81,7.33,9.23,10.46,17.79,3.65,9.97.62,13.48,0,32.02-.54,16.11.67,20.11-3.49,28.47-3.85,7.73-1.66,5.84-6.98,14.23-6.98,11.01-4.24,17.43-10.46,28.47-5.13,9.1-10.03,5.9-20.93,17.79-10.63,11.59-9.66,11.53-17.44,14.23-7.41,2.57-9.72,3.79-20.93,3.56-16.62-.34-17.18,8.9-31.39,7.12-8.32-1.04-10.45-1.87-24.42-7.12-14.77-5.55-18.35-1.41-27.9-7.12-8.21-4.91-5.24-7.77-17.44-17.79-9.11-7.48-17.44-17.79-17.44-17.79h0s-2.59-8.99-6.98-17.79c-4.62-9.27-7.94-7.04-10.46-14.23-3.09-8.79,3.37-12.77,3.49-28.47.07-9.52,0-21.35,0-21.35h0s7.05-15.27,6.98-17.79c-.22-7.32-1.15-9.59,0-14.23,1.34-5.42,1.8-3,6.98-10.67,4.25-6.31,2.65-11.36,6.98-17.79,4.56-6.78,8.15-3.31,13.95-10.67,4.81-6.1,5.83-11.51,10.46-14.23,4.44-2.61,7.78-1.86,13.95-3.56,7.13-1.96,7.93-5.61,13.95-10.67,4.55-3.83,9.1-6.86,24.42-3.56Z"/><path class="cls-3" d="m145.18,284.68c-.19-.33.92-1.33,2.18-1.92,1.93-.9,3.84-.65,4.8-.52.95.12,1.6.23,1.74.52.28.58-3.01-.4-4.98.92-.51.34-1.16,1.93-2.49,1.98-1.53.06-1.13-.79-1.25-.99Z"/><path class="cls-3" d="m158.31,277.76c-.19-.33.92-1.33,2.18-1.92,1.93-.9,3.84-.65,4.8-.52.95.12,1.6.23,1.74.52.28.58-3.01-.4-4.98.92-.51.34-1.16,1.93-2.49,1.98-1.53.06-1.13-.79-1.25-.99Z"/><path class="cls-3" d="m172.26,263.53c-.19-.33.92-1.33,2.18-1.92,1.93-.9,3.84-.65,4.8-.52.95.12,1.6.23,1.74.52.28.58-3.01-.4-4.98.92-.51.34-1.16,1.93-2.49,1.98-1.53.06-1.13-.79-1.25-.99Z"/><path class="cls-3" d="m186.21,256.42c-.19-.33.92-1.33,2.18-1.92,1.93-.9,3.84-.65,4.8-.52.95.12,1.6.23,1.74.52.28.58-3.01-.4-4.98.92-.51.34-1.16,1.93-2.49,1.98-1.53.06-1.13-.79-1.25-.99Z"/><path class="cls-3" d="m196.68,263.53c-.19-.33.92-1.33,2.18-1.92,1.93-.9,3.84-.65,4.8-.52.95.12,1.6.23,1.74.52.28.58-3.01-.4-4.98.92-.51.34-1.16,1.93-2.49,1.98-1.53.06-1.13-.79-1.25-.99Z"/><path class="cls-3" d="m217.6,256.42c-.19-.33.92-1.33,2.18-1.92,1.93-.9,3.84-.65,4.8-.52.95.12,1.6.23,1.74.52.28.58-3.01-.4-4.98.92-.51.34-1.16,1.93-2.49,1.98-1.53.06-1.13-.79-1.25-.99Z"/><path class="cls-3" d="m235.04,263.53c-.19-.33.92-1.33,2.18-1.92,1.93-.9,3.84-.65,4.8-.52.95.12,1.6.23,1.74.52.28.58-3.01-.4-4.98.92-.51.34-1.16,1.93-2.49,1.98-1.53.06-1.13-.79-1.25-.99Z"/><path class="cls-3" d="m238.53,249.3c-.19-.33.92-1.33,2.18-1.92,1.93-.9,3.84-.65,4.8-.52.95.12,1.6.23,1.74.52.28.58-3.01-.4-4.98.92-.51.34-1.16,1.93-2.49,1.98-1.53.06-1.13-.79-1.25-.99Z"/><path class="cls-3" d="m252.48,256.42c-.19-.33.92-1.33,2.18-1.92,1.93-.9,3.84-.65,4.8-.52.95.12,1.6.23,1.74.52.28.58-3.01-.4-4.98.92-.51.34-1.16,1.93-2.49,1.98-1.53.06-1.13-.79-1.25-.99Z"/><path class="cls-3" d="m252.48,270.65c-.19-.33.92-1.33,2.18-1.92,1.93-.9,3.84-.65,4.8-.52.95.12,1.6.23,1.74.52.28.58-3.01-.4-4.98.92-.51.34-1.16,1.93-2.49,1.98-1.53.06-1.13-.79-1.25-.99Z"/><path class="cls-3" d="m273.41,256.42c-.19-.33.92-1.33,2.18-1.92,1.93-.9,3.84-.65,4.8-.52.95.12,1.6.23,1.74.52.28.58-3.01-.4-4.98.92-.51.34-1.16,1.93-2.49,1.98-1.53.06-1.13-.79-1.25-.99Z"/><path class="cls-3" d="m269.92,267.09c-.19-.33.92-1.33,2.18-1.92,1.93-.9,3.84-.65,4.8-.52.95.12,1.6.23,1.74.52.28.58-3.01-.4-4.98.92-.51.34-1.16,1.93-2.49,1.98-1.53.06-1.13-.79-1.25-.99Z"/><path class="cls-3" d="m269.92,281.32c-.19-.33.92-1.33,2.18-1.92,1.93-.9,3.84-.65,4.8-.52.95.12,1.6.23,1.74.52.28.58-3.01-.4-4.98.92-.51.34-1.16,1.93-2.49,1.98-1.53.06-1.13-.79-1.25-.99Z"/><path class="cls-3" d="m287.36,270.65c-.19-.33.92-1.33,2.18-1.92,1.93-.9,3.84-.65,4.8-.52.95.12,1.6.23,1.74.52.28.58-3.01-.4-4.98.92-.51.34-1.16,1.93-2.49,1.98-1.53.06-1.13-.79-1.25-.99Z"/><path class="cls-3" d="m287.36,263.53c-.19-.33.92-1.33,2.18-1.92,1.93-.9,3.84-.65,4.8-.52.95.12,1.6.23,1.74.52.28.58-3.01-.4-4.98.92-.51.34-1.16,1.93-2.49,1.98-1.53.06-1.13-.79-1.25-.99Z"/><path class="cls-3" d="m311.78,267.09c-.19-.33.92-1.33,2.18-1.92,1.93-.9,3.84-.65,4.8-.52.95.12,1.6.23,1.74.52.28.58-3.01-.4-4.98.92-.51.34-1.16,1.93-2.49,1.98-1.53.06-1.13-.79-1.25-.99Z"/><path class="cls-3" d="m301.32,277.76c-.19-.33.92-1.33,2.18-1.92,1.93-.9,3.84-.65,4.8-.52.95.12,1.6.23,1.74.52.28.58-3.01-.4-4.98.92-.51.34-1.16,1.93-2.49,1.98-1.53.06-1.13-.79-1.25-.99Z"/><path class="cls-3" d="m287.36,288.44c-.19-.33.92-1.33,2.18-1.92,1.93-.9,3.84-.65,4.8-.52.95.12,1.6.23,1.74.52.28.58-3.01-.4-4.98.92-.51.34-1.16,1.93-2.49,1.98-1.53.06-1.13-.79-1.25-.99Z"/><path class="cls-3" d="m325.73,277.76c-.19-.33.92-1.33,2.18-1.92,1.93-.9,3.84-.65,4.8-.52.95.12,1.6.23,1.74.52.28.58-3.01-.4-4.98.92-.51.34-1.16,1.93-2.49,1.98-1.53.06-1.13-.79-1.25-.99Z"/><path class="cls-3" d="m297.83,299.11c-.19-.33.92-1.33,2.18-1.92,1.93-.9,3.84-.65,4.8-.52.95.12,1.6.23,1.74.52.28.58-3.01-.4-4.98.92-.51.34-1.16,1.93-2.49,1.98-1.53.06-1.13-.79-1.25-.99Z"/><path class="cls-3" d="m304.8,288.44c-.19-.33.92-1.33,2.18-1.92,1.93-.9,3.84-.65,4.8-.52.95.12,1.6.23,1.74.52.28.58-3.01-.4-4.98.92-.51.34-1.16,1.93-2.49,1.98-1.53.06-1.13-.79-1.25-.99Z"/><path class="cls-3" d="m325.73,295.56c-.19-.33.92-1.33,2.18-1.92,1.93-.9,3.84-.65,4.8-.52.95.12,1.6.23,1.74.52.28.58-3.01-.4-4.98.92-.51.34-1.16,1.93-2.49,1.98-1.53.06-1.13-.79-1.25-.99Z"/><path class="cls-3" d="m311.78,306.23c-.19-.33.92-1.33,2.18-1.92,1.93-.9,3.84-.65,4.8-.52.95.12,1.6.23,1.74.52.28.58-3.01-.4-4.98.92-.51.34-1.16,1.93-2.49,1.98-1.53.06-1.13-.79-1.25-.99Z"/><path class="cls-3" d="m308.29,324.02c-.19-.33.92-1.33,2.18-1.92,1.93-.9,3.84-.65,4.8-.52.95.12,1.6.23,1.74.52.28.58-3.01-.4-4.98.92-.51.34-1.16,1.93-2.49,1.98-1.53.06-1.13-.79-1.25-.99Z"/><path class="cls-3" d="m329.22,313.35c-.19-.33.92-1.33,2.18-1.92,1.93-.9,3.84-.65,4.8-.52.95.12,1.6.23,1.74.52.28.58-3.01-.4-4.98.92-.51.34-1.16,1.93-2.49,1.98-1.53.06-1.13-.79-1.25-.99Z"/><path class="cls-3" d="m339.68,281.32c-.19-.33.92-1.33,2.18-1.92,1.93-.9,3.84-.65,4.8-.52.95.12,1.6.23,1.74.52.28.58-3.01-.4-4.98.92-.51.34-1.16,1.93-2.49,1.98-1.53.06-1.13-.79-1.25-.99Z"/><path class="cls-3" d="m339.68,299.11c-.19-.33.92-1.33,2.18-1.92,1.93-.9,3.84-.65,4.8-.52.95.12,1.6.23,1.74.52.28.58-3.01-.4-4.98.92-.51.34-1.16,1.93-2.49,1.98-1.53.06-1.13-.79-1.25-.99Z"/><path class="cls-3" d="m357.12,288.44c-.19-.33.92-1.33,2.18-1.92,1.93-.9,3.84-.65,4.8-.52.95.12,1.6.23,1.74.52.28.58-3.01-.4-4.98.92-.51.34-1.16,1.93-2.49,1.98-1.53.06-1.13-.79-1.25-.99Z"/><path class="cls-3" d="m353.63,306.23c-.19-.33.92-1.33,2.18-1.92,1.93-.9,3.84-.65,4.8-.52.95.12,1.6.23,1.74.52.28.58-3.01-.4-4.98.92-.51.34-1.16,1.93-2.49,1.98-1.53.06-1.13-.79-1.25-.99Z"/><path class="cls-3" d="m343.17,316.9c-.19-.33.92-1.33,2.18-1.92,1.93-.9,3.84-.65,4.8-.52.95.12,1.6.23,1.74.52.28.58-3.01-.4-4.98.92-.51.34-1.16,1.93-2.49,1.98-1.53.06-1.13-.79-1.25-.99Z"/><path class="cls-3" d="m325.73,331.14c-.19-.33.92-1.33,2.18-1.92,1.93-.9,3.84-.65,4.8-.52.95.12,1.6.23,1.74.52.28.58-3.01-.4-4.98.92-.51.34-1.16,1.93-2.49,1.98-1.53.06-1.13-.79-1.25-.99Z"/><path class="cls-3" d="m315.27,341.81c-.19-.33.92-1.33,2.18-1.92,1.93-.9,3.84-.65,4.8-.52.95.12,1.6.23,1.74.52.28.58-3.01-.4-4.98.92-.51.34-1.16,1.93-2.49,1.98-1.53.06-1.13-.79-1.25-.99Z"/><path class="cls-3" d="m343.17,334.7c-.19-.33.92-1.33,2.18-1.92,1.93-.9,3.84-.65,4.8-.52.95.12,1.6.23,1.74.52.28.58-3.01-.4-4.98.92-.51.34-1.16,1.93-2.49,1.98-1.53.06-1.13-.79-1.25-.99Z"/><path class="cls-3" d="m371.07,306.23c-.19-.33.92-1.33,2.18-1.92,1.93-.9,3.84-.65,4.8-.52.95.12,1.6.23,1.74.52.28.58-3.01-.4-4.98.92-.51.34-1.16,1.93-2.49,1.98-1.53.06-1.13-.79-1.25-.99Z"/><path class="cls-3" d="m360.61,324.02c-.19-.33.92-1.33,2.18-1.92,1.93-.9,3.84-.65,4.8-.52.95.12,1.6.23,1.74.52.28.58-3.01-.4-4.98.92-.51.34-1.16,1.93-2.49,1.98-1.53.06-1.13-.79-1.25-.99Z"/><path class="cls-3" d="m329.22,352.49c-.19-.33.92-1.33,2.18-1.92,1.93-.9,3.84-.65,4.8-.52.95.12,1.6.23,1.74.52.28.58-3.01-.4-4.98.92-.51.34-1.16,1.93-2.49,1.98-1.53.06-1.13-.79-1.25-.99Z"/><path class="cls-3" d="m325.73,366.72c-.19-.33.92-1.33,2.18-1.92,1.93-.9,3.84-.65,4.8-.52.95.12,1.6.23,1.74.52.28.58-3.01-.4-4.98.92-.51.34-1.16,1.93-2.49,1.98-1.53.06-1.13-.79-1.25-.99Z"/><path class="cls-3" d="m353.63,341.81c-.19-.33.92-1.33,2.18-1.92,1.93-.9,3.84-.65,4.8-.52.95.12,1.6.23,1.74.52.28.58-3.01-.4-4.98.92-.51.34-1.16,1.93-2.49,1.98-1.53.06-1.13-.79-1.25-.99Z"/><path class="cls-3" d="m381.54,316.9c-.19-.33.92-1.33,2.18-1.92,1.93-.9,3.84-.65,4.8-.52.95.12,1.6.23,1.74.52.28.58-3.01-.4-4.98.92-.51.34-1.16,1.93-2.49,1.98-1.53.06-1.13-.79-1.25-.99Z"/><path class="cls-3" d="m374.56,331.14c-.19-.33.92-1.33,2.18-1.92,1.93-.9,3.84-.65,4.8-.52.95.12,1.6.23,1.74.52.28.58-3.01-.4-4.98.92-.51.34-1.16,1.93-2.49,1.98-1.53.06-1.13-.79-1.25-.99Z"/><path class="cls-3" d="m350.15,359.6c-.19-.33.92-1.33,2.18-1.92,1.93-.9,3.84-.65,4.8-.52.95.12,1.6.23,1.74.52.28.58-3.01-.4-4.98.92-.51.34-1.16,1.93-2.49,1.98-1.53.06-1.13-.79-1.25-.99Z"/><path class="cls-3" d="m392,334.7c-.19-.33.92-1.33,2.18-1.92,1.93-.9,3.84-.65,4.8-.52.95.12,1.6.23,1.74.52.28.58-3.01-.4-4.98.92-.51.34-1.16,1.93-2.49,1.98-1.53.06-1.13-.79-1.25-.99Z"/><path class="cls-3" d="m371.07,345.37c-.19-.33.92-1.33,2.18-1.92,1.93-.9,3.84-.65,4.8-.52.95.12,1.6.23,1.74.52.28.58-3.01-.4-4.98.92-.51.34-1.16,1.93-2.49,1.98-1.53.06-1.13-.79-1.25-.99Z"/><path class="cls-3" d="m336.2,377.39c-.19-.33.92-1.33,2.18-1.92,1.93-.9,3.84-.65,4.8-.52.95.12,1.6.23,1.74.52.28.58-3.01-.4-4.98.92-.51.34-1.16,1.93-2.49,1.98-1.53.06-1.13-.79-1.25-.99Z"/><path class="cls-3" d="m371.07,366.72c-.19-.33.92-1.33,2.18-1.92,1.93-.9,3.84-.65,4.8-.52.95.12,1.6.23,1.74.52.28.58-3.01-.4-4.98.92-.51.34-1.16,1.93-2.49,1.98-1.53.06-1.13-.79-1.25-.99Z"/><path class="cls-3" d="m392,352.49c-.19-.33.92-1.33,2.18-1.92,1.93-.9,3.84-.65,4.8-.52.95.12,1.6.23,1.74.52.28.58-3.01-.4-4.98.92-.51.34-1.16,1.93-2.49,1.98-1.53.06-1.13-.79-1.25-.99Z"/><path class="cls-3" d="m353.63,380.95c-.19-.33.92-1.33,2.18-1.92,1.93-.9,3.84-.65,4.8-.52.95.12,1.6.23,1.74.52.28.58-3.01-.4-4.98.92-.51.34-1.16,1.93-2.49,1.98-1.53.06-1.13-.79-1.25-.99Z"/><path class="cls-3" d="m329.22,395.18c-.19-.33.92-1.33,2.18-1.92,1.93-.9,3.84-.65,4.8-.52.95.12,1.6.23,1.74.52.28.58-3.01-.4-4.98.92-.51.34-1.16,1.93-2.49,1.98-1.53.06-1.13-.79-1.25-.99Z"/><path class="cls-3" d="m402.47,366.72c-.19-.33.92-1.33,2.18-1.92,1.93-.9,3.84-.65,4.8-.52.95.12,1.6.23,1.74.52.28.58-3.01-.4-4.98.92-.51.34-1.16,1.93-2.49,1.98-1.53.06-1.13-.79-1.25-.99Z"/><path class="cls-3" d="m385.03,377.39c-.19-.33.92-1.33,2.18-1.92,1.93-.9,3.84-.65,4.8-.52.95.12,1.6.23,1.74.52.28.58-3.01-.4-4.98.92-.51.34-1.16,1.93-2.49,1.98-1.53.06-1.13-.79-1.25-.99Z"/><path class="cls-3" d="m364.1,395.18c-.19-.33.92-1.33,2.18-1.92,1.93-.9,3.84-.65,4.8-.52.95.12,1.6.23,1.74.52.28.58-3.01-.4-4.98.92-.51.34-1.16,1.93-2.49,1.98-1.53.06-1.13-.79-1.25-.99Z"/><path class="cls-3" d="m343.17,402.3c-.19-.33.92-1.33,2.18-1.92,1.93-.9,3.84-.65,4.8-.52.95.12,1.6.23,1.74.52.28.58-3.01-.4-4.98.92-.51.34-1.16,1.93-2.49,1.98-1.53.06-1.13-.79-1.25-.99Z"/><path class="cls-3" d="m388.51,398.74c-.19-.33.92-1.33,2.18-1.92,1.93-.9,3.84-.65,4.8-.52.95.12,1.6.23,1.74.52.28.58-3.01-.4-4.98.92-.51.34-1.16,1.93-2.49,1.98-1.53.06-1.13-.79-1.25-.99Z"/><path class="cls-3" d="m398.98,388.07c-.19-.33.92-1.33,2.18-1.92,1.93-.9,3.84-.65,4.8-.52.95.12,1.6.23,1.74.52.28.58-3.01-.4-4.98.92-.51.34-1.16,1.93-2.49,1.98-1.53.06-1.13-.79-1.25-.99Z"/><path class="cls-3" d="m329.22,412.98c-.19-.33.92-1.33,2.18-1.92,1.93-.9,3.84-.65,4.8-.52.95.12,1.6.23,1.74.52.28.58-3.01-.4-4.98.92-.51.34-1.16,1.93-2.49,1.98-1.53.06-1.13-.79-1.25-.99Z"/><path class="cls-3" d="m371.07,412.98c-.19-.33.92-1.33,2.18-1.92,1.93-.9,3.84-.65,4.8-.52.95.12,1.6.23,1.74.52.28.58-3.01-.4-4.98.92-.51.34-1.16,1.93-2.49,1.98-1.53.06-1.13-.79-1.25-.99Z"/><path class="cls-3" d="m350.15,416.53c-.19-.33.92-1.33,2.18-1.92,1.93-.9,3.84-.65,4.8-.52.95.12,1.6.23,1.74.52.28.58-3.01-.4-4.98.92-.51.34-1.16,1.93-2.49,1.98-1.53.06-1.13-.79-1.25-.99Z"/><path class="cls-3" d="m318.76,430.77c-.19-.33.92-1.33,2.18-1.92,1.93-.9,3.84-.65,4.8-.52.95.12,1.6.23,1.74.52.28.58-3.01-.4-4.98.92-.51.34-1.16,1.93-2.49,1.98-1.53.06-1.13-.79-1.25-.99Z"/><path class="cls-3" d="m339.68,441.44c-.19-.33.92-1.33,2.18-1.92,1.93-.9,3.84-.65,4.8-.52.95.12,1.6.23,1.74.52.28.58-3.01-.4-4.98.92-.51.34-1.16,1.93-2.49,1.98-1.53.06-1.13-.79-1.25-.99Z"/><path class="cls-3" d="m360.61,430.77c-.19-.33.92-1.33,2.18-1.92,1.93-.9,3.84-.65,4.8-.52.95.12,1.6.23,1.74.52.28.58-3.01-.4-4.98.92-.51.34-1.16,1.93-2.49,1.98-1.53.06-1.13-.79-1.25-.99Z"/><path class="cls-3" d="m398.98,409.42c-.19-.33.92-1.33,2.18-1.92,1.93-.9,3.84-.65,4.8-.52.95.12,1.6.23,1.74.52.28.58-3.01-.4-4.98.92-.51.34-1.16,1.93-2.49,1.98-1.53.06-1.13-.79-1.25-.99Z"/><path class="cls-3" d="m385.03,427.21c-.19-.33.92-1.33,2.18-1.92,1.93-.9,3.84-.65,4.8-.52.95.12,1.6.23,1.74.52.28.58-3.01-.4-4.98.92-.51.34-1.16,1.93-2.49,1.98-1.53.06-1.13-.79-1.25-.99Z"/><path class="cls-3" d="m311.78,448.56c-.19-.33.92-1.33,2.18-1.92,1.93-.9,3.84-.65,4.8-.52.95.12,1.6.23,1.74.52.28.58-3.01-.4-4.98.92-.51.34-1.16,1.93-2.49,1.98-1.53.06-1.13-.79-1.25-.99Z"/><path class="cls-3" d="m357.12,452.12c-.19-.33.92-1.33,2.18-1.92,1.93-.9,3.84-.65,4.8-.52.95.12,1.6.23,1.74.52.28.58-3.01-.4-4.98.92-.51.34-1.16,1.93-2.49,1.98-1.53.06-1.13-.79-1.25-.99Z"/><path class="cls-3" d="m346.66,469.91c-.19-.33.92-1.33,2.18-1.92,1.93-.9,3.84-.65,4.8-.52.95.12,1.6.23,1.74.52.28.58-3.01-.4-4.98.92-.51.34-1.16,1.93-2.49,1.98-1.53.06-1.13-.79-1.25-.99Z"/><path class="cls-3" d="m371.07,441.44c-.19-.33.92-1.33,2.18-1.92,1.93-.9,3.84-.65,4.8-.52.95.12,1.6.23,1.74.52.28.58-3.01-.4-4.98.92-.51.34-1.16,1.93-2.49,1.98-1.53.06-1.13-.79-1.25-.99Z"/><path class="cls-3" d="m325.73,459.23c-.19-.33.92-1.33,2.18-1.92,1.93-.9,3.84-.65,4.8-.52.95.12,1.6.23,1.74.52.28.58-3.01-.4-4.98.92-.51.34-1.16,1.93-2.49,1.98-1.53.06-1.13-.79-1.25-.99Z"/><path class="cls-3" d="m301.32,473.46c-.19-.33.92-1.33,2.18-1.92,1.93-.9,3.84-.65,4.8-.52.95.12,1.6.23,1.74.52.28.58-3.01-.4-4.98.92-.51.34-1.16,1.93-2.49,1.98-1.53.06-1.13-.79-1.25-.99Z"/><path class="cls-3" d="m374.56,459.23c-.19-.33.92-1.33,2.18-1.92,1.93-.9,3.84-.65,4.8-.52.95.12,1.6.23,1.74.52.28.58-3.01-.4-4.98.92-.51.34-1.16,1.93-2.49,1.98-1.53.06-1.13-.79-1.25-.99Z"/><path class="cls-3" d="m301.32,462.79c-.19-.33.92-1.33,2.18-1.92,1.93-.9,3.84-.65,4.8-.52.95.12,1.6.23,1.74.52.28.58-3.01-.4-4.98.92-.51.34-1.16,1.93-2.49,1.98-1.53.06-1.13-.79-1.25-.99Z"/><path class="cls-3" d="m322.24,477.02c-.19-.33.92-1.33,2.18-1.92,1.93-.9,3.84-.65,4.8-.52.95.12,1.6.23,1.74.52.28.58-3.01-.4-4.98.92-.51.34-1.16,1.93-2.49,1.98-1.53.06-1.13-.79-1.25-.99Z"/><path class="cls-3" d="m283.88,487.7c-.19-.33.92-1.33,2.18-1.92,1.93-.9,3.84-.65,4.8-.52.95.12,1.6.23,1.74.52.28.58-3.01-.4-4.98.92-.51.34-1.16,1.93-2.49,1.98-1.53.06-1.13-.79-1.25-.99Z"/><path class="cls-3" d="m308.29,487.7c-.19-.33.92-1.33,2.18-1.92,1.93-.9,3.84-.65,4.8-.52.95.12,1.6.23,1.74.52.28.58-3.01-.4-4.98.92-.51.34-1.16,1.93-2.49,1.98-1.53.06-1.13-.79-1.25-.99Z"/><path class="cls-3" d="m269.92,501.93c-.19-.33.92-1.33,2.18-1.92,1.93-.9,3.84-.65,4.8-.52.95.12,1.6.23,1.74.52.28.58-3.01-.4-4.98.92-.51.34-1.16,1.93-2.49,1.98-1.53.06-1.13-.79-1.25-.99Z"/><path class="cls-3" d="m235.04,509.05c-.19-.33.92-1.33,2.18-1.92,1.93-.9,3.84-.65,4.8-.52.95.12,1.6.23,1.74.52.28.58-3.01-.4-4.98.92-.51.34-1.16,1.93-2.49,1.98-1.53.06-1.13-.79-1.25-.99Z"/><path class="cls-3" d="m186.21,509.33c-.13-.23.63-.95,1.5-1.37,1.33-.64,2.65-.46,3.31-.37.65.09,1.11.17,1.2.37.19.41-2.08-.29-3.43.66-.35.24-.8,1.38-1.72,1.42-1.05.04-.78-.57-.86-.71Z"/><path class="cls-3" d="m343.17,484.14c-.19-.33.92-1.33,2.18-1.92,1.93-.9,3.84-.65,4.8-.52.95.12,1.6.23,1.74.52.28.58-3.01-.4-4.98.92-.51.34-1.16,1.93-2.49,1.98-1.53.06-1.13-.79-1.25-.99Z"/><path class="cls-3" d="m130.41,298.27c-.21-.22.99-.89,2.34-1.29,2.08-.6,4.13-.43,5.16-.35,1.02.08,1.72.16,1.87.35.3.39-3.24-.27-5.35.62-.54.23-1.25,1.3-2.68,1.33-1.64.04-1.22-.53-1.34-.66Z"/><path class="cls-4" d="m176.91,391.07c-.14.51-1.73.18-2.28.96-.48.67,0,1.92,0,1.92,0,0,1.64,1.49,3.42,1.92,1.45.34,3.42.08,4.56-.96.68-.62.84-1.37,1.14-2.88.26-1.31.41-2.04,0-2.88-.51-1.03-1.56-1.56-2.28-1.92-1.06-.52-2.04-.72-4.56-.96-3.85-.37-5.8-.55-6.84,0-1.29.68-1.78,1.77-2.28,2.88-1.11,2.47-.55,4.61,0,6.71.65,2.48,1.56,3.36,2.28,3.84.17.12.52.33,1.1.56,1.42.56,2.95.7,6.88.4,2.49-.19,6.26-.58,7.98-1.92.01,0,.03-.02.03-.02.5-.39,1.62-1.37,2.25-2.85.43-1.02.46-1.86.47-2.45.03-1.18-.23-2.27-.47-3.31,0-.02-.1-.41-.2-.79-.62-2.24-1.88-4.59-2.08-4.97-1.68-3.12-3.67-5.7-4.56-6.71-.16-.18-.78-.87-1.55-1.87,0,0-.41-.54-.73-1-.87-1.25-2.28-3.28-2.28-5.75,0-1.71.68-2.97,1.14-3.84.6-1.12,1.48-2.76,3.42-3.84,1.73-.96,3.43-.96,6.84-.96s5.06,0,6.84.96c2.32,1.25,3.16,3.2,3.42,3.84.42,1.03,1.3,3.15,0,4.79-.99,1.26-2.74,1.58-4.56,1.92-1.02.19-2.64.47-4.56,0-1.04-.25-2.64-.65-3.42-1.92-.46-.75-.75-2,0-2.88.66-.76,1.79-.85,3.42-.96,2.34-.15,5.57.16,5.7.96.06.37-.54.83-1.14.96-1.25.27-1.86-1.05-3.42-.96-.57.03-1.14.34-2.28.96-1.06.57-1.14.82-1.14.96,0,.12.06.37,1.14.96.83.45,1.39.75,2.28.96,1.47.34,2.73.15,3.42,0,.74-.17,1.57-.35,2.28-.96,1.16-.99,1.15-2.36,1.14-2.88-.02-1.37-.74-2.35-1.14-2.88-.88-1.15-1.97-1.75-2.28-1.92-1.25-.65-2.35-.76-4.56-.96-1.43-.13-2.79-.25-4.56,0-1.6.23-2.53.36-3.42.96-.68.46-1.22,1.59-2.28,3.84-.94,1.99-1.06,2.48-1.14,2.88-.17.9-.35,1.85,0,2.88.7,2.04,2.71,2,4.56,4.79.49.73.43.86,1.14,1.92.81,1.2,1.12,1.4,2.28,2.88,1.42,1.82,2.14,2.75,2.28,3.84.11.85-.15.91,0,1.92.16,1.11.55,1.6,1.14,2.88.91,1.98,1.36,2.97,1.14,3.84-.31,1.18-1.22,1.11-2.28,2.88-.96,1.6-.4,1.98-1.14,2.88-1.16,1.4-3.45,1.61-6.84,1.92-2.11.19-3.62.11-5.7,0-3.09-.17-4.66-.26-5.7-.96-1.05-.7-1.46-1.75-2.28-3.84-.56-1.43-.75-2.55-1.14-4.79-.45-2.63-.33-3.25,0-3.84.44-.78,1.1-1.19,2.28-1.92,1.36-.84,2.72-1.69,4.56-1.92,1.61-.2,1.5.33,5.7.96,2.51.38,3.3.3,4.56.96.3.16,1.4.76,2.28,1.92.41.54,1.14,1.5,1.14,2.88,0,1.5-.85,2.55-1.14,2.88-.83.93-1.79,1.3-3.42,1.92-1.99.76-3.09,1.18-4.56.96-.38-.06-2.36-.39-3.42-1.92-.77-1.11-.98-2.75,0-3.84.07-.07,1.1-1.19,2.28-.96.63.12,1.24.62,1.14.96Z"/><path class="cls-4" d="m153.01,330.29c-.41.32-1.49-.91-2.39-.62-.78.25-1.12,1.54-1.12,1.54,0,0,.44,2.2,1.62,3.62.96,1.16,2.7,2.15,4.22,2.01.91-.08,1.48-.59,2.6-1.61.98-.89,1.53-1.39,1.68-2.31.2-1.14-.33-2.2-.71-2.93-.55-1.07-1.22-1.82-3.1-3.55-2.87-2.65-4.33-3.97-5.48-4.17-1.43-.24-2.46.33-3.51.92-2.33,1.3-3.14,3.36-3.93,5.38-.93,2.38-.71,3.64-.42,4.47.07.2.22.58.55,1.12.81,1.31,1.96,2.36,5.28,4.51,2.11,1.37,5.36,3.36,7.52,3.33.02,0,.03,0,.04,0,.63-.01,2.11-.11,3.48-.92.95-.55,1.46-1.22,1.81-1.68.71-.93,1.15-1.96,1.56-2.94,0-.02.16-.39.3-.75.82-2.18,1.18-4.82,1.24-5.25.48-3.52.4-6.81.27-8.16-.02-.24-.12-1.18-.14-2.44,0,0-.01-.68,0-1.25.04-1.53.09-4.02,1.54-6,1-1.37,2.28-1.97,3.16-2.38,1.14-.53,2.8-1.31,4.99-.99,1.95.29,3.32,1.32,6.05,3.4s4.06,3.08,4.92,4.94c1.13,2.41.66,4.49.5,5.16-.26,1.08-.8,3.32-2.81,3.84-1.53.4-3.12-.4-4.78-1.24-.93-.47-2.39-1.23-3.66-2.78-.68-.84-1.74-2.13-1.62-3.62.07-.89.57-2.07,1.68-2.31.98-.21,1.93.41,3.3,1.32,1.97,1.3,4.38,3.53,4.01,4.24-.17.33-.92.34-1.48.07-1.15-.54-.87-1.98-2.18-2.85-.48-.32-1.12-.42-2.39-.62-1.19-.19-1.39-.04-1.48.07-.07.1-.17.33.35,1.46.4.87.67,1.45,1.27,2.16.98,1.17,2.1,1.79,2.74,2.08.69.32,1.46.67,2.39.62,1.52-.09,2.3-1.19,2.6-1.61.79-1.11.78-2.33.77-3-.03-1.46-.55-2.61-.71-2.93-.62-1.28-1.44-2.04-3.1-3.55-1.07-.98-2.09-1.9-3.66-2.78-1.41-.79-2.23-1.25-3.3-1.32-.81-.05-1.91.53-4.07,1.69-1.92,1.02-2.31,1.34-2.6,1.61-.66.62-1.37,1.27-1.68,2.31-.63,2.07,1,3.26.85,6.62-.04.88-.16.96-.21,2.23-.06,1.46.08,1.8.14,3.7.08,2.32.11,3.51-.42,4.47-.41.75-.65.64-1.12,1.54-.52.99-.49,1.62-.77,3-.43,2.14-.65,3.22-1.33,3.77-.94.76-1.63.15-3.51.92-1.71.7-1.48,1.34-2.6,1.61-1.75.42-3.71-.81-6.61-2.63-1.81-1.14-2.97-2.12-4.57-3.47-2.38-2.02-3.58-3.05-4.01-4.24-.43-1.21-.15-2.29.42-4.47.39-1.49.89-2.5,1.89-4.54,1.17-2.38,1.64-2.81,2.25-3.08.81-.35,1.58-.28,2.95-.15,1.58.15,3.17.3,4.78,1.24,1.41.82,1.01,1.18,4.01,4.24,1.79,1.83,2.47,2.25,3.1,3.55.15.31.68,1.46.71,2.93.01.68.04,1.89-.77,3-.88,1.2-2.18,1.53-2.6,1.61-1.21.24-2.2-.05-3.87-.55-2.04-.61-3.17-.94-4.22-2.01-.27-.27-1.67-1.75-1.62-3.62.03-1.36.82-2.8,2.25-3.08.1-.02,1.58-.28,2.39.62.43.48.63,1.25.35,1.46Z"/><path class="cls-4" d="m232.43,311.3c-.28-.44.99-1.45.78-2.39-.19-.81-1.42-1.25-1.42-1.25,0,0-2.18.29-3.66,1.39-1.2.9-2.29,2.59-2.26,4.15.02.94.47,1.54,1.39,2.76.8,1.06,1.25,1.65,2.14,1.88,1.1.28,2.18-.18,2.91-.51,1.08-.48,1.86-1.11,3.69-2.9,2.79-2.73,4.19-4.12,4.46-5.29.34-1.44-.15-2.53-.65-3.64-1.11-2.47-3.07-3.43-4.98-4.38-2.26-1.12-3.51-.98-4.34-.74-.2.06-.59.19-1.13.48-1.34.73-2.44,1.82-4.79,5.06-1.49,2.05-3.66,5.22-3.78,7.42,0,.02,0,.03,0,.04-.03.64-.04,2.15.65,3.6.48,1,1.09,1.57,1.51,1.96.86.79,1.83,1.31,2.76,1.79.02,0,.37.2.71.36,2.07.98,4.63,1.55,5.05,1.64,3.41.73,6.63.89,7.96.86.24,0,1.16-.04,2.4.03,0,0,.67.03,1.23.09,1.49.14,3.93.38,5.76,1.99,1.27,1.11,1.76,2.46,2.1,3.38.44,1.19,1.09,2.94.62,5.15-.42,1.96-1.53,3.28-3.75,5.91-2.2,2.61-3.3,3.91-5.18,4.66-2.44.98-4.44.35-5.08.14-1.04-.34-3.19-1.05-3.56-3.13-.29-1.59.62-3.15,1.55-4.78.53-.91,1.37-2.35,2.98-3.52.86-.63,2.2-1.62,3.66-1.39.86.13,1.98.73,2.14,1.88.14,1.01-.54,1.94-1.52,3.27-1.41,1.91-3.76,4.2-4.43,3.78-.31-.19-.26-.96.03-1.51.61-1.14,1.99-.75,2.94-2.02.35-.47.49-1.11.78-2.39.27-1.2.14-1.41.03-1.51-.09-.08-.31-.2-1.46.26-.88.35-1.47.58-2.2,1.14-1.21.92-1.9,2.01-2.23,2.64-.36.68-.76,1.44-.78,2.39-.02,1.55,1,2.42,1.39,2.76,1.03.88,2.23.96,2.88,1,1.43.08,2.59-.38,2.91-.51,1.3-.54,2.1-1.32,3.69-2.9,1.03-1.02,2.01-2,2.98-3.52.87-1.38,1.38-2.18,1.52-3.27.1-.82-.38-1.98-1.36-4.27-.87-2.02-1.15-2.44-1.39-2.76-.56-.72-1.14-1.48-2.14-1.88-1.98-.79-3.25.79-6.54.4-.86-.1-.92-.23-2.17-.37-1.42-.16-1.77-.05-3.62-.12-2.28-.09-3.44-.14-4.34-.74-.7-.47-.58-.71-1.42-1.25-.93-.6-1.55-.62-2.88-1-2.07-.59-3.1-.89-3.59-1.62-.67-1.01-.03-1.67-.65-3.64-.56-1.79-1.21-1.6-1.39-2.76-.29-1.81,1.06-3.72,3.04-6.54,1.24-1.76,2.28-2.87,3.72-4.41,2.14-2.28,3.23-3.43,4.43-3.78,1.21-.35,2.25.01,4.34.74,1.43.5,2.39,1.08,4.3,2.25,2.25,1.36,2.63,1.87,2.85,2.5.29.85.16,1.63-.06,3.01-.26,1.6-.52,3.21-1.55,4.78-.9,1.37-1.22.94-4.43,3.78-1.91,1.69-2.37,2.35-3.69,2.9-.31.13-1.48.59-2.91.51-.66-.03-1.85-.1-2.88-1-1.12-.98-1.34-2.33-1.39-2.76-.15-1.25.2-2.23.81-3.9.74-2.03,1.15-3.16,2.26-4.15.29-.25,1.83-1.57,3.66-1.39,1.33.13,2.68,1.04,2.85,2.5.01.1.17,1.63-.78,2.39-.5.4-1.27.55-1.46.26Z"/><path class="cls-4" d="m215.61,415.84c-.25-.44-3.05-.16-4.03-.82-.84-.58,0-1.65,0-1.65,0,0,2.89-1.29,6.04-1.65,2.56-.3,6.04-.07,8.05.82,1.21.54,1.48,1.18,2.01,2.47.47,1.12.73,1.76,0,2.47-.9.89-2.75,1.34-4.03,1.65-1.88.45-3.6.62-8.05.82-6.8.32-10.24.47-12.08,0-2.28-.58-3.15-1.52-4.03-2.47-1.96-2.12-.97-3.97,0-5.77,1.14-2.13,2.76-2.89,4.03-3.3.31-.1.92-.29,1.94-.48,2.51-.48,5.21-.6,12.15-.34,4.4.16,11.06.5,14.09,1.65.02,0,.04.02.05.02.88.34,2.87,1.18,3.98,2.45.77.88.8,1.6.83,2.1.05,1.01-.4,1.95-.83,2.84,0,.02-.17.36-.35.68-1.1,1.93-3.31,3.95-3.67,4.27-2.97,2.68-6.48,4.91-8.05,5.77-.28.16-1.38.75-2.73,1.61,0,0-.72.46-1.3.86-1.53,1.07-4.03,2.82-4.03,4.95,0,1.47,1.2,2.55,2.01,3.3,1.06.96,2.61,2.37,6.04,3.3,3.06.82,6.07.82,12.08.82s8.93,0,12.08-.82c4.09-1.07,5.58-2.75,6.04-3.3.75-.88,2.29-2.71,0-4.12-1.75-1.08-4.84-1.36-8.05-1.65-1.8-.16-4.66-.41-8.05,0-1.83.22-4.66.56-6.04,1.65-.82.65-1.33,1.72,0,2.47,1.17.66,3.16.73,6.04.82,4.14.13,9.85-.14,10.07-.82.1-.32-.96-.71-2.01-.82-2.2-.23-3.28.9-6.04.82-1.01-.03-2.02-.29-4.03-.82-1.87-.49-2.01-.7-2.01-.82,0-.1.1-.32,2.01-.82,1.47-.39,2.45-.65,4.03-.82,2.6-.29,4.83-.13,6.04,0,1.31.14,2.77.3,4.03.82,2.06.85,2.03,2.03,2.01,2.47-.03,1.18-1.3,2.02-2.01,2.47-1.55.99-3.47,1.51-4.03,1.65-2.2.56-4.15.65-8.05.82-2.53.11-4.93.21-8.05,0-2.82-.19-4.46-.31-6.04-.82-1.2-.39-2.16-1.37-4.03-3.3-1.66-1.71-1.88-2.13-2.01-2.47-.3-.77-.63-1.59,0-2.47,1.24-1.76,4.78-1.72,8.05-4.12.86-.63.76-.74,2.01-1.65,1.42-1.03,1.98-1.2,4.03-2.47,2.51-1.56,3.78-2.36,4.03-3.3.2-.73-.26-.78,0-1.65.29-.95.98-1.38,2.01-2.47,1.61-1.7,2.41-2.56,2.01-3.3-.54-1.01-2.16-.96-4.03-2.47-1.7-1.38-.71-1.7-2.01-2.47-2.04-1.21-6.1-1.39-12.08-1.65-3.73-.16-6.4-.1-10.07,0-5.46.14-8.22.23-10.07.82-1.86.61-2.58,1.5-4.03,3.3-.99,1.23-1.33,2.19-2.01,4.12-.8,2.26-.59,2.8,0,3.3.78.67,1.95,1.02,4.03,1.65,2.4.73,4.81,1.45,8.05,1.65,2.84.17,2.65-.28,10.07-.82,4.43-.32,5.82-.26,8.05-.82.53-.14,2.47-.65,4.03-1.65.72-.46,2.01-1.29,2.01-2.47,0-1.29-1.51-2.2-2.01-2.47-1.46-.8-3.16-1.12-6.04-1.65-3.51-.65-5.46-1.01-8.05-.82-.67.05-4.17.33-6.04,1.65-1.36.96-1.73,2.36,0,3.3.12.06,1.95,1.03,4.03.82,1.11-.11,2.18-.53,2.01-.82Z"/><path class="cls-4" d="m126.35,381.89c-.2-.49,1.25-1.23,1.21-2.19-.03-.83-1.17-1.5-1.17-1.5,0,0-2.19-.14-3.85.66-1.35.65-2.73,2.1-3,3.64-.16.92.18,1.61.85,2.98.59,1.19.92,1.86,1.75,2.26,1.03.49,2.17.24,2.95.06,1.15-.26,2.03-.73,4.16-2.13,3.25-2.14,4.88-3.24,5.37-4.33.6-1.35.32-2.51.04-3.7-.63-2.64-2.37-3.97-4.08-5.27-2.01-1.54-3.26-1.65-4.12-1.57-.21.02-.61.07-1.2.26-1.45.46-2.74,1.32-5.64,4.04-1.84,1.72-4.56,4.41-5.1,6.55,0,.02,0,.03,0,.04-.15.62-.44,2.1-.03,3.66.28,1.08.78,1.75,1.12,2.22.69.94,1.56,1.64,2.38,2.3.02.01.33.26.63.49,1.85,1.37,4.26,2.42,4.65,2.58,3.21,1.38,6.34,2.16,7.66,2.38.24.04,1.15.19,2.35.49,0,0,.65.16,1.19.32,1.44.43,3.78,1.13,5.29,3.07,1.04,1.34,1.27,2.76,1.44,3.73.21,1.26.52,3.1-.35,5.17-.78,1.85-2.11,2.92-4.78,5.08s-3.97,3.2-5.95,3.57c-2.57.49-4.42-.51-5.01-.85-.95-.54-2.93-1.65-2.91-3.76.01-1.61,1.19-2.97,2.41-4.39.69-.79,1.78-2.04,3.58-2.88.97-.46,2.46-1.16,3.85-.66.82.3,1.81,1.1,1.75,2.26-.05,1.02-.89,1.8-2.1,2.92-1.74,1.6-4.47,3.4-5.06,2.85-.27-.25-.08-.99.31-1.47.81-1,2.1-.35,3.27-1.41.43-.39.69-.99,1.21-2.19.48-1.12.4-1.36.31-1.47-.07-.09-.27-.25-1.48-.03-.93.17-1.55.28-2.37.69-1.36.67-2.24,1.61-2.68,2.16-.48.6-1.02,1.27-1.21,2.19-.31,1.52.53,2.57.85,2.98.85,1.07,2.01,1.38,2.64,1.54,1.39.35,2.61.13,2.95.06,1.38-.28,2.3-.89,4.16-2.13,1.2-.8,2.34-1.57,3.58-2.88,1.12-1.19,1.76-1.88,2.1-2.92.25-.79,0-2.02-.54-4.45-.47-2.15-.67-2.62-.85-2.98-.41-.81-.85-1.68-1.75-2.26-1.79-1.16-3.34.14-6.49-.88-.83-.27-.86-.4-2.06-.78-1.36-.43-1.73-.39-3.54-.82-2.22-.53-3.35-.8-4.12-1.57-.6-.59-.44-.8-1.17-1.5-.8-.77-1.41-.9-2.64-1.54-1.92-.98-2.88-1.47-3.23-2.29-.47-1.12.28-1.64.04-3.7-.22-1.87-.89-1.81-.85-2.98.05-1.83,1.73-3.45,4.2-5.83,1.54-1.49,2.77-2.38,4.47-3.61,2.53-1.82,3.81-2.74,5.06-2.85,1.25-.11,2.21.45,4.12,1.57,1.31.77,2.14,1.53,3.81,3.04,1.95,1.77,2.24,2.34,2.33,3.01.12.89-.14,1.63-.62,2.95-.55,1.52-1.11,3.05-2.41,4.39-1.14,1.17-1.38.69-5.06,2.85-2.19,1.29-2.77,1.85-4.16,2.13-.33.07-1.56.29-2.95-.06-.65-.16-1.8-.46-2.64-1.54-.91-1.17-.88-2.54-.85-2.98.08-1.25.62-2.15,1.52-3.67,1.1-1.85,1.71-2.88,3-3.64.33-.19,2.09-1.19,3.85-.66,1.28.38,2.44,1.54,2.33,3.01,0,.1-.14,1.63-1.21,2.19-.57.3-1.35.29-1.48-.03Z"/><path class="cls-4" d="m154.43,460.73c-.32.41-1.66-.52-2.47-.02-.7.43-.73,1.77-.73,1.77,0,0,.94,2.03,2.42,3.12,1.21.89,3.12,1.42,4.57.92.87-.3,1.29-.94,2.14-2.2.74-1.1,1.16-1.72,1.09-2.65-.08-1.16-.84-2.06-1.37-2.67-.78-.9-1.61-1.47-3.84-2.69-3.41-1.87-5.14-2.8-6.31-2.7-1.45.11-2.31.92-3.19,1.75-1.96,1.83-2.26,4.03-2.55,6.19-.35,2.54.16,3.71.64,4.44.12.18.35.51.8.95,1.09,1.08,2.45,1.81,6.19,3.09,2.37.81,5.99,1.94,8.09,1.39.02,0,.03,0,.03,0,.61-.17,2.02-.63,3.16-1.74.79-.77,1.13-1.54,1.36-2.07.47-1.07.65-2.18.82-3.23,0-.02.07-.42.11-.8.28-2.32.01-4.97-.03-5.4-.37-3.54-1.21-6.71-1.65-7.99-.08-.23-.39-1.12-.71-2.34,0,0-.17-.66-.3-1.22-.33-1.49-.86-3.93.08-6.21.65-1.57,1.75-2.47,2.51-3.08.98-.8,2.41-1.96,4.61-2.18,1.96-.2,3.53.47,6.67,1.82,3.11,1.33,4.66,2,5.94,3.59,1.66,2.06,1.7,4.2,1.7,4.89,0,1.11,0,3.42-1.82,4.42-1.39.77-3.13.37-4.93-.04-1.01-.23-2.61-.61-4.2-1.8-.86-.64-2.19-1.64-2.42-3.12-.14-.88.07-2.15,1.09-2.65.9-.44,1.97-.08,3.52.47,2.22.78,5.08,2.35,4.89,3.14-.09.36-.81.55-1.42.43-1.25-.25-1.31-1.7-2.79-2.24-.54-.2-1.18-.14-2.47-.02-1.2.11-1.36.3-1.42.43-.05.11-.09.36.69,1.33.6.75.99,1.24,1.74,1.79,1.23.89,2.46,1.22,3.15,1.35.75.14,1.58.3,2.47.02,1.45-.45,1.95-1.72,2.14-2.2.51-1.27.21-2.46.04-3.1-.37-1.41-1.15-2.39-1.37-2.67-.9-1.1-1.88-1.63-3.84-2.69-1.27-.69-2.48-1.33-4.2-1.8-1.56-.42-2.46-.67-3.52-.47-.8.15-1.73.98-3.56,2.63-1.62,1.46-1.92,1.87-2.14,2.2-.5.76-1.03,1.57-1.09,2.65-.13,2.16,1.74,2.92,2.38,6.22.17.87.07.97.32,2.22.29,1.43.5,1.73,1.01,3.55.62,2.24.93,3.38.64,4.44-.22.82-.48.78-.73,1.77-.27,1.09-.1,1.69-.04,3.1.09,2.19.13,3.28-.41,3.99-.73.96-1.55.54-3.19,1.75-1.5,1.1-1.12,1.67-2.14,2.2-1.6.84-3.79.12-7.03-.94-2.02-.66-3.38-1.33-5.25-2.25-2.79-1.37-4.19-2.08-4.89-3.14-.7-1.07-.68-2.19-.64-4.44.03-1.54.27-2.65.77-4.87.58-2.6.93-3.13,1.46-3.54.7-.54,1.47-.66,2.83-.87,1.57-.24,3.15-.48,4.93.04,1.56.45,1.26.9,4.89,3.14,2.17,1.34,2.92,1.58,3.84,2.69.22.26,1,1.25,1.37,2.67.17.66.48,1.83-.04,3.1-.57,1.38-1.76,2.02-2.14,2.2-1.11.53-2.15.49-3.88.42-2.12-.09-3.3-.14-4.57-.92-.33-.2-2.03-1.29-2.42-3.12-.29-1.33.14-2.92,1.46-3.54.09-.04,1.47-.66,2.47.02.53.36.9,1.06.69,1.33Z"/><path class="cls-4" d="m246.74,380.73c-.93-.47.2-1.79-1.12-2.83-1.14-.9-3.68-1.25-3.68-1.25,0,0-3.39.61-4.77,2.06-1.12,1.18-1.23,3.26.4,5.04.98,1.07,2.38,1.71,5.17,2.98,2.43,1.11,3.79,1.73,5.53,1.88,2.15.18,3.5-.49,4.41-.95,1.34-.69,2.02-1.51,3.28-3.79,1.93-3.48,2.88-5.25,2.16-6.62-.89-1.69-2.83-2.88-4.81-4.09-4.39-2.68-8.69-3.54-12.9-4.39-4.96-.99-6.94-.68-8.09-.3-.28.09-.8.29-1.43.7-1.53,1.01-2.27,2.4-2.94,6.4-.42,2.53-.87,6.44,1.16,8.98.01.02.03.04.03.04.6.74,2.13,2.47,4.77,4.04,1.82,1.09,3.44,1.66,4.55,2.05,2.25.8,4.43,1.26,6.5,1.71.04,0,.83.18,1.57.32,4.51.87,9.41,1.18,10.2,1.23,6.52.41,12.12.18,14.34-.03.4-.04,1.93-.19,4.09-.27,0,0,1.16-.05,2.16-.05,2.67-.02,7.03-.06,11.77,1.55,3.28,1.12,5.49,2.6,7.01,3.61,1.96,1.31,4.83,3.23,6.29,5.82,1.29,2.3.76,3.95-.32,7.25s-1.6,4.9-4.01,5.99c-3.13,1.43-7.14.97-8.45.8-2.1-.26-6.46-.8-9.21-3.13-2.1-1.78-2.17-3.69-2.24-5.67-.04-1.11-.07-2.86,1.44-4.41.82-.84,2.08-2.13,4.77-2.06,1.59.04,4.09.58,5.53,1.88,1.26,1.14,1.07,2.29.76,3.94-.45,2.37-2.07,5.29-3.65,4.89-.72-.18-1.42-1.07-1.48-1.73-.12-1.38,2.61-1.11,2.92-2.68.12-.58-.3-1.33-1.12-2.83-.77-1.4-1.21-1.64-1.48-1.73-.23-.08-.73-.19-2.2.48-1.13.51-1.89.85-2.56,1.58-1.11,1.2-1.16,2.54-1.08,3.31.09.83.18,1.75,1.12,2.83,1.54,1.78,4.17,2.65,5.17,2.98,2.64.88,4.75.82,5.89.78,2.49-.09,3.99-.76,4.41-.95,1.65-.78,2.19-1.78,3.28-3.79.71-1.3,1.36-2.54,1.44-4.41.07-1.69.11-2.68-.76-3.94-.66-.95-2.67-2.22-6.65-4.71-3.53-2.21-4.43-2.65-5.17-2.98-1.67-.75-3.44-1.55-5.53-1.88-4.15-.65-4.7,1.31-10.65,1.28-1.56,0-1.8-.15-4.05-.15-2.57,0-3.04.17-6.25.33-3.94.19-5.95.27-8.09-.3-1.66-.45-1.69-.74-3.68-1.25-2.18-.57-3.25-.51-5.89-.78-4.1-.41-6.14-.62-7.73-1.4-2.17-1.07-1.75-1.91-4.81-4.09-2.78-1.98-3.68-1.68-5.17-2.98-2.33-2.03-2-4.39-1.52-7.87.3-2.17.93-3.58,1.8-5.52,1.3-2.88,1.98-4.34,3.65-4.89,1.69-.56,3.82-.27,8.09.3,2.92.39,5.14.94,9.57,2.03,5.19,1.28,6.36,1.81,7.37,2.51,1.35.94,1.93,1.84,2.96,3.46,1.19,1.87,2.38,3.74,2.24,5.67-.12,1.69-1.11,1.24-3.65,4.89-1.51,2.18-1.62,2.99-3.28,3.79-.4.19-1.9.86-4.41.95-1.16.04-3.24.12-5.89-.78-2.88-.98-4.64-2.5-5.17-2.98-1.53-1.41-1.93-2.58-2.6-4.56-.82-2.42-1.28-3.76-.4-5.04.23-.33,1.49-2.03,4.77-2.06,2.38-.02,5.59.85,7.37,2.51.12.11,1.94,1.85,1.12,2.83-.44.53-1.58.79-2.2.48Z"/><path class="cls-4" d="m244.68,472.54c.98-.35,1.11,1.4,2.77,1.17,1.43-.2,3.46-1.81,3.46-1.81,0,0,1.95-2.89,1.9-4.91-.04-1.64-1.42-3.18-3.81-3.24-1.44-.03-2.86.54-5.7,1.67-2.48.99-3.87,1.55-5.19,2.71-1.63,1.44-2.11,2.89-2.42,3.88-.46,1.46-.36,2.53.35,5.04,1.08,3.85,1.66,5.78,3.12,6.21,1.81.53,4-.05,6.22-.64,4.95-1.32,8.56-3.85,12.1-6.32,4.17-2.92,5.34-4.58,5.87-5.68.13-.27.36-.79.51-1.53.37-1.82-.09-3.33-2.42-6.62-1.48-2.08-3.89-5.14-7.1-5.44-.02,0-.05,0-.05,0-.93-.08-3.22-.18-6.17.64-2.04.57-3.57,1.34-4.63,1.88-2.14,1.08-3.99,2.34-5.74,3.54-.03.02-.7.48-1.32.92-3.76,2.68-7.42,6.03-8.01,6.57-4.85,4.46-8.61,8.7-10.02,10.46-.25.32-1.22,1.54-2.67,3.17,0,0-.78.88-1.48,1.61-1.85,1.96-4.87,5.16-9.33,7.49-3.08,1.61-5.66,2.18-7.43,2.58-2.29.51-5.65,1.26-8.47.51-2.52-.67-3.29-2.21-4.85-5.31-1.54-3.06-2.31-4.59-1.39-7.11,1.19-3.28,4.32-5.88,5.35-6.72,1.66-1.35,5.08-4.15,8.64-4.52,2.72-.28,4.1,1,5.54,2.33.81.75,2.05,1.95,2.08,4.14.01,1.18.04,3.01-1.9,4.91-1.15,1.13-3.27,2.57-5.19,2.71-1.68.12-2.35-.82-3.29-2.2-1.34-1.98-2.25-5.21-.87-6.08.63-.4,1.74-.29,2.25.13,1.05.88-1.05,2.68-.17,4.01.32.49,1.14.72,2.77,1.17,1.52.42,1.99.27,2.25.13.22-.11.64-.4,1.21-1.94.44-1.18.73-1.97.69-2.97-.06-1.65-.97-2.63-1.56-3.11-.64-.52-1.35-1.09-2.77-1.17-2.32-.12-4.77,1.18-5.7,1.67-2.47,1.31-3.9,2.88-4.67,3.74-1.68,1.88-2.26,3.44-2.42,3.88-.61,1.75-.29,2.85.35,5.04.41,1.42.82,2.77,2.08,4.14,1.13,1.24,1.79,1.96,3.29,2.2,1.13.19,3.42-.39,7.95-1.54,4.01-1.02,4.96-1.37,5.7-1.67,1.7-.69,3.5-1.42,5.19-2.71,3.36-2.56,2.37-4.35,6.56-8.66,1.1-1.13,1.36-1.21,2.94-2.84,1.8-1.87,2.01-2.33,4.15-4.78,2.63-3,3.98-4.53,5.87-5.68,1.48-.9,1.7-.72,3.46-1.81,1.92-1.19,2.63-2.01,4.67-3.74,3.16-2.69,4.74-4.04,6.39-4.65,2.26-.83,2.56.06,6.22-.64,3.33-.64,3.75-1.5,5.7-1.67,3.05-.27,4.48,1.62,6.58,4.4,1.31,1.74,1.85,3.18,2.6,5.18,1.11,2.96,1.65,4.48.87,6.08-.79,1.62-2.48,2.97-5.87,5.68-2.32,1.86-4.26,3.09-8.12,5.55-4.53,2.88-5.71,3.37-6.91,3.61-1.6.33-2.64.12-4.5-.26-2.14-.44-4.29-.88-5.54-2.33-1.09-1.27-.09-1.67-.87-6.08-.47-2.63-.96-3.27-.35-5.04.15-.42.73-1.98,2.42-3.88.78-.88,2.18-2.44,4.67-3.74,2.7-1.41,4.99-1.63,5.7-1.67,2.06-.13,3.16.4,5.02,1.3,2.27,1.09,3.53,1.7,3.81,3.24.07.39.38,2.51-1.9,4.91-1.65,1.74-4.51,3.48-6.91,3.61-.17,0-2.65.12-2.77-1.17-.06-.69.56-1.71,1.21-1.94Z"/><path class="cls-4" d="m200.35,332.83c-.3-.25.42-1.71.07-2.43-.3-.62-1.3-.44-1.3-.44,0,0-1.53,1.24-2.38,2.87-.69,1.33-1.14,3.29-.79,4.63.2.81.66,1.12,1.58,1.76.8.56,1.25.87,1.94.66.86-.26,1.55-1.15,2.02-1.77.69-.91,1.13-1.81,2.09-4.19,1.47-3.64,2.2-5.48,2.16-6.62-.05-1.4-.63-2.13-1.22-2.87-1.31-1.64-2.94-1.59-4.53-1.54-1.88.06-2.76.74-3.31,1.33-.13.14-.39.43-.73.94-.83,1.24-1.4,2.69-2.45,6.57-.66,2.45-1.59,6.19-1.23,8.16,0,.01,0,.03,0,.03.11.57.41,1.89,1.22,2.83.55.65,1.11.87,1.5,1.02.79.3,1.6.3,2.38.31.02,0,.31,0,.59-.01,1.71-.09,3.69-.76,4.01-.87,2.64-.91,5.01-2.24,5.98-2.87.17-.11.84-.56,1.75-1.07,0,0,.49-.27.91-.48,1.12-.55,2.94-1.45,4.61-.88,1.15.39,1.79,1.34,2.23,1.98.57.84,1.4,2.06,1.51,4.19.1,1.9-.44,3.54-1.52,6.84s-1.6,4.9-2.81,6.4c-1.57,1.95-3.16,2.32-3.67,2.43-.83.17-2.54.53-3.24-1.1-.54-1.25-.2-3.02.15-4.85.2-1.03.52-2.66,1.44-4.41.5-.94,1.27-2.41,2.38-2.87.65-.27,1.59-.27,1.94.66.31.81,0,1.93-.43,3.53-.64,2.3-1.87,5.36-2.45,5.3-.27-.03-.39-.71-.29-1.32.21-1.27,1.3-1.56,1.73-3.09.16-.56.13-1.18.07-2.43-.05-1.16-.19-1.29-.29-1.32-.08-.03-.27-.03-1.01.88-.57.7-.95,1.17-1.37,1.99-.69,1.35-.97,2.61-1.08,3.31-.12.76-.26,1.6-.07,2.43.3,1.36,1.23,1.65,1.58,1.76.93.3,1.82-.18,2.3-.44,1.06-.58,1.81-1.5,2.02-1.77.84-1.06,1.25-2.1,2.09-4.19.54-1.35,1.05-2.65,1.44-4.41.35-1.6.56-2.53.43-3.53-.09-.76-.69-1.55-1.87-3.09-1.05-1.36-1.34-1.6-1.58-1.76-.55-.37-1.14-.77-1.94-.66-1.6.21-2.21,2.16-4.68,3.31-.65.3-.72.22-1.66.66-1.07.5-1.3.76-2.66,1.55-1.68.96-2.53,1.44-3.31,1.33-.61-.09-.57-.35-1.3-.44-.8-.1-1.26.17-2.3.44-1.63.43-2.44.64-2.95.22-.7-.57-.36-1.44-1.22-2.87-.78-1.3-1.21-.84-1.58-1.76-.58-1.44,0-3.71.87-7.06.54-2.09,1.07-3.53,1.8-5.52,1.09-2.95,1.65-4.45,2.45-5.3.81-.86,1.64-1.01,3.31-1.33,1.14-.21,1.96-.14,3.6,0,1.92.17,2.3.43,2.59.88.38.61.45,1.34.57,2.65.14,1.51.28,3.02-.15,4.85-.37,1.6-.7,1.38-2.45,5.3-1.05,2.34-1.24,3.12-2.09,4.19-.2.26-.95,1.18-2.02,1.77-.49.27-1.37.76-2.3.44-1.01-.34-1.45-1.41-1.58-1.76-.37-1.01-.31-2.03-.21-3.75.12-2.1.18-3.26.79-4.63.16-.35,1.01-2.2,2.38-2.87.99-.49,2.17-.32,2.59.88.03.08.46,1.34-.07,2.43-.28.58-.81,1.05-1.01.88Z"/><path class="cls-4" d="m135.9,349.62c-.38-.22.17-1.01-.36-1.53-.45-.45-1.54-.52-1.54-.52,0,0-1.5.5-2.16,1.38-.54.71-.68,1.88-.06,2.79.38.55.95.84,2.1,1.42,1,.5,1.56.79,2.31.78.92,0,1.54-.44,1.95-.74.61-.45.94-.94,1.6-2.27,1-2.04,1.49-3.07,1.24-3.8-.31-.9-1.09-1.47-1.89-2.05-1.78-1.29-3.6-1.56-5.38-1.83-2.1-.32-2.97-.05-3.49.22-.13.07-.36.2-.65.46-.71.63-1.09,1.45-1.57,3.71-.3,1.43-.67,3.63.09,4.95,0,0,.01.02.01.02.22.38.81,1.28,1.88,2.03.74.52,1.41.76,1.88.93.94.34,1.86.49,2.74.64.02,0,.35.06.67.1,1.91.27,4.02.21,4.36.2,2.8-.08,5.24-.48,6.21-.7.18-.04.84-.2,1.78-.35,0,0,.51-.08.94-.13,1.16-.14,3.05-.37,5.03.3,1.37.47,2.26,1.19,2.87,1.68.79.64,1.95,1.57,2.46,2.95.45,1.22.15,2.17-.47,4.06-.61,1.87-.92,2.81-2.01,3.54-1.42.95-3.14.88-3.7.85-.9-.04-2.76-.14-3.85-1.31-.83-.89-.77-1.95-.71-3.06.03-.62.1-1.59.83-2.53.39-.51,1-1.29,2.16-1.38.69-.05,1.74.13,2.31.78.49.57.36,1.23.15,2.16-.3,1.34-1.14,3.05-1.8,2.9-.3-.07-.57-.53-.56-.89.01-.76,1.18-.75,1.39-1.64.08-.33-.07-.73-.36-1.53-.27-.75-.45-.86-.56-.89-.1-.03-.31-.07-.98.37-.51.34-.86.56-1.18,1-.54.73-.62,1.48-.62,1.9,0,.46,0,.97.36,1.53.58.92,1.68,1.28,2.1,1.42,1.1.36,2.02.23,2.51.15,1.08-.17,1.76-.61,1.95-.74.75-.51,1.03-1.1,1.6-2.27.37-.76.71-1.48.83-2.53.11-.95.17-1.5-.15-2.16-.24-.5-1.05-1.11-2.66-2.31-1.43-1.06-1.8-1.27-2.1-1.42-.69-.34-1.42-.7-2.31-.78-1.77-.17-2.1.96-4.67,1.22-.68.07-.77,0-1.74.11-1.11.12-1.32.24-2.72.48-1.72.29-2.59.44-3.49.22-.7-.17-.7-.33-1.54-.52-.92-.21-1.38-.13-2.51-.15-1.75-.04-2.63-.05-3.28-.41-.89-.49-.67-.98-1.89-2.05-1.11-.97-1.51-.76-2.1-1.42-.91-1.02-.67-2.36-.3-4.32.23-1.23.57-2.04,1.03-3.17.69-1.67,1.06-2.51,1.8-2.9.76-.39,1.67-.34,3.49-.22,1.25.08,2.18.28,4.05.67,2.19.46,2.67.7,3.08,1.05.54.46.75.94,1.12,1.79.43.99.86,1.97.71,3.06-.13.95-.54.74-1.8,2.9-.76,1.29-.84,1.75-1.6,2.27-.18.12-.86.57-1.95.74-.5.08-1.41.22-2.51-.15-1.2-.41-1.89-1.17-2.1-1.42-.6-.71-.72-1.35-.92-2.42-.25-1.31-.38-2.04.06-2.79.11-.19.74-1.21,2.16-1.38,1.03-.12,2.38.21,3.08,1.05.05.06.76.94.36,1.53-.21.31-.72.52-.98.37Z"/><path class="cls-4" d="m189.24,289.37c-.22-.25.39-.72.15-1.22-.21-.44-.97-.74-.97-.74,0,0-1.21.03-1.91.53-.57.41-.98,1.25-.77,2.08.13.5.46.85,1.14,1.54.59.61.92.95,1.45,1.12.66.21,1.22.03,1.6-.11.56-.19.92-.48,1.74-1.33,1.25-1.29,1.88-1.95,1.89-2.55.01-.74-.4-1.35-.82-1.97-.94-1.37-2.18-1.99-3.39-2.61-1.43-.72-2.12-.72-2.56-.64-.11.02-.31.07-.59.19-.67.31-1.17.83-2.1,2.42-.59,1-1.44,2.56-1.24,3.73,0,0,0,.02,0,.02.06.34.25,1.14.82,1.95.4.56.81.89,1.11,1.13.59.47,1.21.8,1.8,1.11.01,0,.24.12.45.23,1.3.64,2.83,1.08,3.08,1.15,2.04.58,3.89.84,4.65.9.14.01.66.05,1.37.15,0,0,.38.06.71.12.87.16,2.29.42,3.53,1.38.86.66,1.31,1.41,1.62,1.91.4.66.98,1.62.99,2.77,0,1.02-.46,1.65-1.4,2.93-.93,1.26-1.4,1.89-2.37,2.18-1.27.38-2.48-.06-2.88-.21-.63-.24-1.95-.74-2.42-1.86-.36-.86-.04-1.64.29-2.45.19-.45.49-1.17,1.26-1.7.41-.29,1.06-.73,1.91-.53.51.12,1.22.5,1.45,1.12.2.54-.06,1-.46,1.65-.57.93-1.62,2.02-2.06,1.76-.2-.12-.27-.52-.17-.8.21-.57,1.04-.29,1.43-.91.14-.23.14-.56.15-1.22,0-.62-.1-.74-.17-.8-.06-.05-.2-.12-.8.05-.46.14-.76.23-1.11.48-.58.42-.83.96-.94,1.28-.12.34-.26.72-.15,1.22.18.82.87,1.34,1.14,1.54.7.53,1.39.64,1.77.69.82.12,1.43-.05,1.6-.11.67-.21,1.03-.59,1.74-1.33.46-.48.9-.95,1.26-1.7.33-.68.52-1.08.46-1.65-.04-.43-.46-1.07-1.31-2.34-.75-1.12-.96-1.36-1.14-1.54-.41-.41-.84-.85-1.45-1.12-1.23-.53-1.76.23-3.68-.16-.5-.1-.56-.17-1.28-.32-.83-.17-1.01-.12-2.08-.26-1.31-.17-1.98-.27-2.56-.64-.46-.29-.42-.41-.97-.74-.6-.37-.96-.41-1.77-.69-1.25-.43-1.88-.64-2.25-1.06-.51-.57-.22-.89-.82-1.97-.54-.98-.89-.92-1.14-1.54-.39-.98.14-1.91.92-3.3.49-.86.94-1.4,1.57-2.13.94-1.09,1.42-1.64,2.06-1.76.65-.12,1.29.13,2.56.64.88.35,1.5.71,2.73,1.43,1.45.85,1.73,1.14,1.94,1.49.27.47.29.87.34,1.6.05.84.1,1.67-.29,2.45-.34.68-.58.43-2.06,1.76-.88.79-1.06,1.12-1.74,1.33-.16.05-.77.23-1.6.11-.38-.06-1.07-.16-1.77-.69-.76-.58-1.05-1.31-1.14-1.54-.24-.67-.16-1.17-.02-2.02.17-1.04.26-1.61.77-2.08.13-.12.85-.73,1.91-.53.77.14,1.66.7,1.94,1.49.02.05.3.87-.15,1.22-.24.19-.65.22-.8.05Z"/><path class="cls-4" d="m271.73,327.29c-.35-.73-1.86.23-2.75-.8-.77-.89-.79-2.92-.79-2.92,0,0,1.08-2.75,2.75-3.91,1.36-.94,3.5-1.11,5.1.14.96.75,1.43,1.85,2.36,4.05.81,1.91,1.26,2.99,1.18,4.38-.1,1.72-.97,2.83-1.57,3.58-.89,1.1-1.81,1.68-4.32,2.78-3.83,1.68-5.77,2.51-7.07,1.98-1.61-.66-2.56-2.17-3.53-3.72-2.15-3.43-2.46-6.86-2.75-10.21-.35-3.96.24-5.56.78-6.5.13-.23.4-.66.91-1.17,1.24-1.26,2.76-1.91,6.95-2.6,2.65-.43,6.71-.94,9.03.61.02.01.03.02.04.03.67.45,2.24,1.62,3.5,3.69.87,1.43,1.23,2.7,1.49,3.59.51,1.78.7,3.52.87,5.17,0,.03.07.66.11,1.25.28,3.59-.06,7.53-.11,8.16-.46,5.23-1.45,9.74-1.96,11.53-.09.32-.45,1.56-.83,3.3,0,0-.2.94-.35,1.74-.38,2.15-1.01,5.65,0,9.41.7,2.6,1.92,4.32,2.75,5.51,1.08,1.53,2.66,3.77,5.1,4.85,2.18.96,3.94.46,7.46-.52,3.48-.98,5.23-1.46,6.67-3.44,1.88-2.57,1.95-5.78,1.96-6.83.02-1.68.05-5.17-1.96-7.29-1.54-1.63-3.48-1.61-5.5-1.6-1.13,0-2.92.05-4.71,1.32-.97.69-2.46,1.75-2.75,3.91-.17,1.28.04,3.27,1.18,4.38.99.97,2.2.78,3.93.47,2.48-.44,5.69-1.86,5.5-3.11-.09-.57-.9-1.11-1.57-1.13-1.4-.05-1.49,2.14-3.14,2.45-.61.11-1.32-.19-2.75-.8-1.33-.57-1.51-.91-1.57-1.13-.05-.18-.09-.58.79-1.79.68-.93,1.12-1.55,1.96-2.12,1.38-.94,2.76-1.03,3.53-.99.84.04,1.76.08,2.75.8,1.61,1.17,2.15,3.25,2.36,4.05.54,2.09.2,3.79,0,4.71-.43,2.01-1.31,3.24-1.57,3.58-1.02,1.35-2.12,1.83-4.32,2.78-1.42.62-2.78,1.19-4.71,1.32-1.74.12-2.75.19-3.93-.47-.89-.5-1.91-2.06-3.93-5.18-1.78-2.76-2.12-3.47-2.36-4.05-.55-1.32-1.12-2.71-1.18-4.38-.11-3.31,1.98-3.83,2.75-8.61.2-1.26.09-1.44.39-3.25.34-2.06.59-2.45,1.18-5.04.73-3.18,1.08-4.8.78-6.5-.23-1.32-.52-1.34-.79-2.92-.29-1.73-.08-2.59,0-4.71.13-3.28.19-4.92-.39-6.17-.8-1.7-1.72-1.34-3.53-3.72-1.65-2.16-1.22-2.89-2.36-4.05-1.77-1.8-4.23-1.45-7.85-.94-2.26.32-3.79.88-5.89,1.65-3.13,1.15-4.7,1.75-5.5,3.11-.8,1.38-.8,3.08-.78,6.5,0,2.34.27,4.1.79,7.62.61,4.12.99,5.05,1.57,5.84.78,1.05,1.63,1.49,3.14,2.26,1.75.89,3.5,1.78,5.5,1.6,1.74-.16,1.41-.94,5.5-3.11,2.44-1.3,3.28-1.41,4.32-2.78.25-.33,1.13-1.56,1.57-3.58.2-.93.56-2.61,0-4.71-.61-2.28-1.93-3.64-2.36-4.05-1.23-1.18-2.38-1.46-4.32-1.93-2.37-.57-3.68-.89-5.1-.14-.37.19-2.28,1.27-2.75,3.91-.34,1.91.11,4.46,1.57,5.84.1.09,1.63,1.5,2.75.8.6-.37,1.02-1.3.79-1.79Z"/><path class="cls-4" d="m156.18,414.35c-.23-.16.21-.95-.09-1.38-.26-.37-.97-.33-.97-.33,0,0-1.04.61-1.57,1.49-.43.71-.64,1.81-.31,2.6.2.47.55.68,1.26,1.1.62.37.96.57,1.46.5.61-.09,1.06-.56,1.37-.88.45-.48.72-.96,1.28-2.26.86-1.99,1.29-2.99,1.19-3.64-.12-.8-.59-1.25-1.06-1.71-1.06-1.02-2.25-1.09-3.41-1.16-1.37-.08-1.98.25-2.34.55-.09.07-.26.22-.48.49-.53.66-.87,1.45-1.4,3.6-.34,1.36-.8,3.44-.42,4.58,0,0,0,.02,0,.02.11.33.42,1.1,1.06,1.69.44.41.87.56,1.16.67.59.22,1.19.27,1.76.32.01,0,.23.02.43.03,1.25.06,2.66-.21,2.88-.25,1.88-.36,3.54-.97,4.2-1.27.12-.05.58-.27,1.22-.5,0,0,.34-.13.64-.22.78-.25,2.06-.65,3.32-.22.87.3,1.39.87,1.75,1.27.46.51,1.14,1.26,1.35,2.49.19,1.09-.11,2-.7,3.81s-.88,2.7-1.68,3.48c-1.04,1.02-2.17,1.13-2.54,1.16-.59.05-1.83.15-2.43-.83-.47-.75-.33-1.73-.18-2.76.08-.58.22-1.49.79-2.43.31-.51.79-1.29,1.57-1.49.46-.12,1.15-.06,1.46.5.27.48.12,1.1-.11,1.99-.33,1.27-1.05,2.94-1.48,2.87-.2-.03-.33-.43-.29-.77.08-.71.86-.81,1.08-1.66.08-.31.03-.67-.09-1.38-.11-.66-.22-.75-.29-.77-.06-.02-.2-.03-.69.44-.38.37-.62.61-.88,1.05-.43.73-.55,1.43-.6,1.82-.04.43-.09.9.09,1.38.3.79,1,1.02,1.26,1.1.7.23,1.32.01,1.66-.11.74-.27,1.23-.75,1.37-.88.55-.55.79-1.12,1.28-2.26.32-.74.61-1.45.79-2.43.16-.89.26-1.41.11-1.99-.11-.44-.59-.93-1.55-1.88-.85-.84-1.07-1-1.26-1.1-.43-.25-.88-.51-1.46-.5-1.16.02-1.49,1.1-3.23,1.6-.46.13-.51.08-1.17.28-.75.22-.9.36-1.86.72-1.17.44-1.77.66-2.34.55-.45-.09-.43-.24-.97-.33-.59-.11-.91.02-1.66.11-1.16.14-1.75.21-2.15-.06-.54-.37-.35-.84-1.06-1.71-.65-.79-.94-.56-1.26-1.1-.51-.86-.22-2.12.22-3.98.27-1.16.57-1.95.99-3.04.62-1.62.94-2.44,1.48-2.87.54-.44,1.14-.48,2.34-.55.82-.05,1.43.04,2.63.22,1.41.21,1.71.39,1.95.66.32.37.41.79.58,1.55.19.87.38,1.74.18,2.76-.18.89-.43.74-1.48,2.87-.63,1.27-.73,1.7-1.28,2.26-.13.13-.63.61-1.37.88-.34.12-.96.35-1.66.11-.76-.26-1.15-.9-1.26-1.1-.33-.6-.35-1.18-.38-2.15-.04-1.19-.06-1.85.31-2.6.09-.19.61-1.19,1.57-1.49.7-.22,1.57-.05,1.95.66.03.05.41.79.09,1.38-.17.31-.53.55-.69.44Z"/><path class="cls-4" d="m278.07,435.71c.09-.24.62.01.87-.33.22-.3.15-.93.15-.93,0,0-.46-.82-1.06-1.13-.48-.25-1.2-.23-1.68.2-.29.26-.4.62-.62,1.33-.19.62-.3.97-.22,1.4.1.53.43.85.66,1.06.33.31.66.46,1.53.73,1.33.4,2,.6,2.41.39.51-.25.76-.76,1.02-1.27.58-1.13.54-2.21.51-3.26-.04-1.24-.29-1.72-.51-1.99-.05-.07-.16-.19-.34-.34-.46-.35-.98-.51-2.39-.59-.89-.05-2.25-.08-2.95.47,0,0-.01,0-.01,0-.2.16-.68.57-1.01,1.26-.23.47-.3.88-.35,1.16-.1.57-.09,1.11-.09,1.63,0,.01,0,.21.01.39.05,1.13.31,2.34.35,2.53.36,1.61.86,2.98,1.09,3.52.04.1.21.47.4,1,0,0,.1.28.18.53.21.65.55,1.72.37,2.92-.13.83-.46,1.4-.69,1.8-.3.51-.73,1.26-1.49,1.67-.68.37-1.28.27-2.48.07s-1.78-.29-2.33-.86c-.72-.74-.87-1.73-.91-2.06-.07-.52-.22-1.6.36-2.33.44-.55,1.08-.61,1.75-.67.37-.03.96-.08,1.6.26.35.18.88.47,1.06,1.13.11.39.11,1.02-.22,1.4-.29.33-.69.31-1.28.27-.84-.06-1.95-.4-1.93-.79,0-.18.25-.37.47-.4.46-.06.57.62,1.13.66.2.02.43-.1.87-.33.42-.22.46-.33.47-.4,0-.06,0-.18-.33-.53-.26-.27-.43-.45-.73-.6-.49-.25-.95-.23-1.2-.2-.27.04-.58.08-.87.33-.49.41-.58,1.08-.62,1.33-.1.67.08,1.18.18,1.46.22.61.56.96.66,1.06.39.39.77.5,1.53.73.49.15.96.28,1.6.26.58-.02.92-.03,1.28-.27.27-.18.55-.7,1.09-1.73.48-.91.56-1.14.62-1.33.13-.43.27-.88.22-1.4-.09-1.03-.8-1.13-1.24-2.59-.12-.38-.09-.44-.26-1-.19-.63-.29-.74-.58-1.53-.36-.96-.54-1.46-.51-1.99.03-.42.12-.43.15-.93.03-.55-.07-.81-.18-1.46-.17-1.01-.25-1.52-.11-1.93.2-.55.51-.47,1.02-1.27.46-.72.29-.94.62-1.33.51-.61,1.34-.58,2.55-.54.76.03,1.28.15,2.01.33,1.07.26,1.62.39,1.93.79.32.4.38.93.51,1.99.09.73.07,1.28.04,2.39-.04,1.3-.13,1.6-.29,1.86-.22.35-.48.51-.95.8-.54.33-1.09.66-1.75.67-.58,0-.5-.25-1.93-.79-.85-.33-1.14-.33-1.53-.73-.09-.09-.43-.45-.66-1.06-.1-.28-.29-.79-.18-1.46.11-.73.49-1.19.62-1.33.36-.41.73-.53,1.35-.74.76-.25,1.18-.39,1.68-.2.13.05.8.32,1.06,1.13.19.58.14,1.39-.29,1.86-.03.03-.48.52-.87.33-.21-.1-.39-.37-.33-.53Z"/><path class="cls-4" d="m202.99,451.2c.09-.24.62.01.87-.33.22-.3.15-.93.15-.93,0,0-.46-.82-1.06-1.13-.48-.25-1.2-.23-1.68.2-.29.26-.4.62-.62,1.33-.19.62-.3.97-.22,1.4.1.53.43.85.66,1.06.33.31.66.46,1.53.73,1.33.4,2,.6,2.41.39.51-.25.76-.76,1.02-1.27.58-1.13.54-2.21.51-3.26-.04-1.24-.29-1.72-.51-1.99-.05-.07-.16-.19-.34-.34-.46-.35-.98-.51-2.39-.59-.89-.05-2.25-.08-2.95.47,0,0-.01,0-.01,0-.2.16-.68.57-1.01,1.26-.23.47-.3.88-.35,1.16-.1.57-.09,1.11-.09,1.63,0,.01,0,.21.01.39.05,1.13.31,2.34.35,2.53.36,1.61.86,2.98,1.09,3.52.04.1.21.47.4,1,0,0,.1.28.18.53.21.65.55,1.72.37,2.92-.13.83-.46,1.4-.69,1.8-.3.51-.73,1.26-1.49,1.67-.68.37-1.28.27-2.48.07s-1.78-.29-2.33-.86c-.72-.74-.87-1.73-.91-2.06-.07-.52-.22-1.6.36-2.33.44-.55,1.08-.61,1.75-.67.37-.03.96-.08,1.6.26.35.18.88.47,1.06,1.13.11.39.11,1.02-.22,1.4-.29.33-.69.31-1.28.27-.84-.06-1.95-.4-1.93-.79,0-.18.25-.37.47-.4.46-.06.57.62,1.13.66.2.02.43-.1.87-.33.42-.22.46-.33.47-.4,0-.06,0-.18-.33-.53-.26-.27-.43-.45-.73-.6-.49-.25-.95-.23-1.2-.2-.27.04-.58.08-.87.33-.49.41-.58,1.08-.62,1.33-.1.67.08,1.18.18,1.46.22.61.56.96.66,1.06.39.39.77.5,1.53.73.49.15.96.28,1.6.26.58-.02.92-.03,1.28-.27.27-.18.55-.7,1.09-1.73.48-.91.56-1.14.62-1.33.13-.43.27-.88.22-1.4-.09-1.03-.8-1.13-1.24-2.59-.12-.38-.09-.44-.26-1-.19-.63-.29-.74-.58-1.53-.36-.96-.54-1.46-.51-1.99.03-.42.12-.43.15-.93.03-.55-.07-.81-.18-1.46-.17-1.01-.25-1.52-.11-1.93.2-.55.51-.47,1.02-1.27.46-.72.29-.94.62-1.33.51-.61,1.34-.58,2.55-.54.76.03,1.28.15,2.01.33,1.07.26,1.62.39,1.93.79.32.4.38.93.51,1.99.09.73.07,1.28.04,2.39-.04,1.3-.13,1.6-.29,1.86-.22.35-.48.51-.95.8-.54.33-1.09.66-1.75.67-.58,0-.5-.25-1.93-.79-.85-.33-1.14-.33-1.53-.73-.09-.09-.43-.45-.66-1.06-.1-.28-.29-.79-.18-1.46.11-.73.49-1.19.62-1.33.36-.41.73-.53,1.35-.74.76-.25,1.18-.39,1.68-.2.13.05.8.32,1.06,1.13.19.58.14,1.39-.29,1.86-.03.03-.48.52-.87.33-.21-.1-.39-.37-.33-.53Z"/><path class="cls-4" d="m216.94,376.48c.09-.24.62.01.87-.33.22-.3.15-.93.15-.93,0,0-.46-.82-1.06-1.13-.48-.25-1.2-.23-1.68.2-.29.26-.4.62-.62,1.33-.19.62-.3.97-.22,1.4.1.53.43.85.66,1.06.33.31.66.46,1.53.73,1.33.4,2,.6,2.41.39.51-.25.76-.76,1.02-1.27.58-1.13.54-2.21.51-3.26-.04-1.24-.29-1.72-.51-1.99-.05-.07-.16-.19-.34-.34-.46-.35-.98-.51-2.39-.59-.89-.05-2.25-.08-2.95.47,0,0-.01,0-.01,0-.2.16-.68.57-1.01,1.26-.23.47-.3.88-.35,1.16-.1.57-.09,1.11-.09,1.63,0,.01,0,.21.01.39.05,1.13.31,2.34.35,2.53.36,1.61.86,2.98,1.09,3.52.04.1.21.47.4,1,0,0,.1.28.18.53.21.65.55,1.72.37,2.92-.13.83-.46,1.4-.69,1.8-.3.51-.73,1.26-1.49,1.67-.68.37-1.28.27-2.48.07s-1.78-.29-2.33-.86c-.72-.74-.87-1.73-.91-2.06-.07-.52-.22-1.6.36-2.33.44-.55,1.08-.61,1.75-.67.37-.03.96-.08,1.6.26.35.18.88.47,1.06,1.13.11.39.11,1.02-.22,1.4-.29.33-.69.31-1.28.27-.84-.06-1.95-.4-1.93-.79,0-.18.25-.37.47-.4.46-.06.57.62,1.13.66.2.02.43-.1.87-.33.42-.22.46-.33.47-.4,0-.06,0-.18-.33-.53-.26-.27-.43-.45-.73-.6-.49-.25-.95-.23-1.2-.2-.27.04-.58.08-.87.33-.49.41-.58,1.08-.62,1.33-.1.67.08,1.18.18,1.46.22.61.56.96.66,1.06.39.39.77.5,1.53.73.49.15.96.28,1.6.26.58-.02.92-.03,1.28-.27.27-.18.55-.7,1.09-1.73.48-.91.56-1.14.62-1.33.13-.43.27-.88.22-1.4-.09-1.03-.8-1.13-1.24-2.59-.12-.38-.09-.44-.26-1-.19-.63-.29-.74-.58-1.53-.36-.96-.54-1.46-.51-1.99.03-.42.12-.43.15-.93.03-.55-.07-.81-.18-1.46-.17-1.01-.25-1.52-.11-1.93.2-.55.51-.47,1.02-1.27.46-.72.29-.94.62-1.33.51-.61,1.34-.58,2.55-.54.76.03,1.28.15,2.01.33,1.07.26,1.62.39,1.93.79.32.4.38.93.51,1.99.09.73.07,1.28.04,2.39-.04,1.3-.13,1.6-.29,1.86-.22.35-.48.51-.95.8-.54.33-1.09.66-1.75.67-.58,0-.5-.25-1.93-.79-.85-.33-1.14-.33-1.53-.73-.09-.09-.43-.45-.66-1.06-.1-.28-.29-.79-.18-1.46.11-.73.49-1.19.62-1.33.36-.41.73-.53,1.35-.74.76-.25,1.18-.39,1.68-.2.13.05.8.32,1.06,1.13.19.58.14,1.39-.29,1.86-.03.03-.48.52-.87.33-.21-.1-.39-.37-.33-.53Z"/><path class="cls-4" d="m262.29,351.57c.09-.24.62.01.87-.33.22-.3.15-.93.15-.93,0,0-.46-.82-1.06-1.13-.48-.25-1.2-.23-1.68.2-.29.26-.4.62-.62,1.33-.19.62-.3.97-.22,1.4.1.53.43.85.66,1.06.33.31.66.46,1.53.73,1.33.4,2,.6,2.41.39.51-.25.76-.76,1.02-1.27.58-1.13.54-2.21.51-3.26-.04-1.24-.29-1.72-.51-1.99-.05-.07-.16-.19-.34-.34-.46-.35-.98-.51-2.39-.59-.89-.05-2.25-.08-2.95.47,0,0-.01,0-.01,0-.2.16-.68.57-1.01,1.26-.23.47-.3.88-.35,1.16-.1.57-.09,1.11-.09,1.63,0,.01,0,.21.01.39.05,1.13.31,2.34.35,2.53.36,1.61.86,2.98,1.09,3.52.04.1.21.47.4,1,0,0,.1.28.18.53.21.65.55,1.72.37,2.92-.13.83-.46,1.4-.69,1.8-.3.51-.73,1.26-1.49,1.67-.68.37-1.28.27-2.48.07s-1.78-.29-2.33-.86c-.72-.74-.87-1.73-.91-2.06-.07-.52-.22-1.6.36-2.33.44-.55,1.08-.61,1.75-.67.37-.03.96-.08,1.6.26.35.18.88.47,1.06,1.13.11.39.11,1.02-.22,1.4-.29.33-.69.31-1.28.27-.84-.06-1.95-.4-1.93-.79,0-.18.25-.37.47-.4.46-.06.57.62,1.13.66.2.02.43-.1.87-.33.42-.22.46-.33.47-.4,0-.06,0-.18-.33-.53-.26-.27-.43-.45-.73-.6-.49-.25-.95-.23-1.2-.2-.27.04-.58.08-.87.33-.49.41-.58,1.08-.62,1.33-.1.67.08,1.18.18,1.46.22.61.56.96.66,1.06.39.39.77.5,1.53.73.49.15.96.28,1.6.26.58-.02.92-.03,1.28-.27.27-.18.55-.7,1.09-1.73.48-.91.56-1.14.62-1.33.13-.43.27-.88.22-1.4-.09-1.03-.8-1.13-1.24-2.59-.12-.38-.09-.44-.26-1-.19-.63-.29-.74-.58-1.53-.36-.96-.54-1.46-.51-1.99.03-.42.12-.43.15-.93.03-.55-.07-.81-.18-1.46-.17-1.01-.25-1.52-.11-1.93.2-.55.51-.47,1.02-1.27.46-.72.29-.94.62-1.33.51-.61,1.34-.58,2.55-.54.76.03,1.28.15,2.01.33,1.07.26,1.62.39,1.93.79.32.4.38.93.51,1.99.09.73.07,1.28.04,2.39-.04,1.3-.13,1.6-.29,1.86-.22.35-.48.51-.95.8-.54.33-1.09.66-1.75.67-.58,0-.5-.25-1.93-.79-.85-.33-1.14-.33-1.53-.73-.09-.09-.43-.45-.66-1.06-.1-.28-.29-.79-.18-1.46.11-.73.49-1.19.62-1.33.36-.41.73-.53,1.35-.74.76-.25,1.18-.39,1.68-.2.13.05.8.32,1.06,1.13.19.58.14,1.39-.29,1.86-.03.03-.48.52-.87.33-.21-.1-.39-.37-.33-.53Z"/><path class="cls-4" d="m307.63,383.6c.09-.24.62.01.87-.33.22-.3.15-.93.15-.93,0,0-.46-.82-1.06-1.13-.48-.25-1.2-.23-1.68.2-.29.26-.4.62-.62,1.33-.19.62-.3.97-.22,1.4.1.53.43.85.66,1.06.33.31.66.46,1.53.73,1.33.4,2,.6,2.41.39.51-.25.76-.76,1.02-1.27.58-1.13.54-2.21.51-3.26-.04-1.24-.29-1.72-.51-1.99-.05-.07-.16-.19-.34-.34-.46-.35-.98-.51-2.39-.59-.89-.05-2.25-.08-2.95.47,0,0-.01,0-.01,0-.2.16-.68.57-1.01,1.26-.23.47-.3.88-.35,1.16-.1.57-.09,1.11-.09,1.63,0,.01,0,.21.01.39.05,1.13.31,2.34.35,2.53.36,1.61.86,2.98,1.09,3.52.04.1.21.47.4,1,0,0,.1.28.18.53.21.65.55,1.72.37,2.92-.13.83-.46,1.4-.69,1.8-.3.51-.73,1.26-1.49,1.67-.68.37-1.28.27-2.48.07s-1.78-.29-2.33-.86c-.72-.74-.87-1.73-.91-2.06-.07-.52-.22-1.6.36-2.33.44-.55,1.08-.61,1.75-.67.37-.03.96-.08,1.6.26.35.18.88.47,1.06,1.13.11.39.11,1.02-.22,1.4-.29.33-.69.31-1.28.27-.84-.06-1.95-.4-1.93-.79,0-.18.25-.37.47-.4.46-.06.57.62,1.13.66.2.02.43-.1.87-.33.42-.22.46-.33.47-.4,0-.06,0-.18-.33-.53-.26-.27-.43-.45-.73-.6-.49-.25-.95-.23-1.2-.2-.27.04-.58.08-.87.33-.49.41-.58,1.08-.62,1.33-.1.67.08,1.18.18,1.46.22.61.56.96.66,1.06.39.39.77.5,1.53.73.49.15.96.28,1.6.26.58-.02.92-.03,1.28-.27.27-.18.55-.7,1.09-1.73.48-.91.56-1.14.62-1.33.13-.43.27-.88.22-1.4-.09-1.03-.8-1.13-1.24-2.59-.12-.38-.09-.44-.26-1-.19-.63-.29-.74-.58-1.53-.36-.96-.54-1.46-.51-1.99.03-.42.12-.43.15-.93.03-.55-.07-.81-.18-1.46-.17-1.01-.25-1.52-.11-1.93.2-.55.51-.47,1.02-1.27.46-.72.29-.94.62-1.33.51-.61,1.34-.58,2.55-.54.76.03,1.28.15,2.01.33,1.07.26,1.62.39,1.93.79.32.4.38.93.51,1.99.09.73.07,1.28.04,2.39-.04,1.3-.13,1.6-.29,1.86-.22.35-.48.51-.95.8-.54.33-1.09.66-1.75.67-.58,0-.5-.25-1.93-.79-.85-.33-1.14-.33-1.53-.73-.09-.09-.43-.45-.66-1.06-.1-.28-.29-.79-.18-1.46.11-.73.49-1.19.62-1.33.36-.41.73-.53,1.35-.74.76-.25,1.18-.39,1.68-.2.13.05.8.32,1.06,1.13.19.58.14,1.39-.29,1.86-.03.03-.48.52-.87.33-.21-.1-.39-.37-.33-.53Z"/><path class="cls-4" d="m216.94,283.97c.09-.24.62.01.87-.33.22-.3.15-.93.15-.93,0,0-.46-.82-1.06-1.13-.48-.25-1.2-.23-1.68.2-.29.26-.4.62-.62,1.33-.19.62-.3.97-.22,1.4.1.53.43.85.66,1.06.33.31.66.46,1.53.73,1.33.4,2,.6,2.41.39.51-.25.76-.76,1.02-1.27.58-1.13.54-2.21.51-3.26-.04-1.24-.29-1.72-.51-1.99-.05-.07-.16-.19-.34-.34-.46-.35-.98-.51-2.39-.59-.89-.05-2.25-.08-2.95.47,0,0-.01,0-.01,0-.2.16-.68.57-1.01,1.26-.23.47-.3.88-.35,1.16-.1.57-.09,1.11-.09,1.63,0,.01,0,.21.01.39.05,1.13.31,2.34.35,2.53.36,1.61.86,2.98,1.09,3.52.04.1.21.47.4,1,0,0,.1.28.18.53.21.65.55,1.72.37,2.92-.13.83-.46,1.4-.69,1.8-.3.51-.73,1.26-1.49,1.67-.68.37-1.28.27-2.48.07s-1.78-.29-2.33-.86c-.72-.74-.87-1.73-.91-2.06-.07-.52-.22-1.6.36-2.33.44-.55,1.08-.61,1.75-.67.37-.03.96-.08,1.6.26.35.18.88.47,1.06,1.13.11.39.11,1.02-.22,1.4-.29.33-.69.31-1.28.27-.84-.06-1.95-.4-1.93-.79,0-.18.25-.37.47-.4.46-.06.57.62,1.13.66.2.02.43-.1.87-.33.42-.22.46-.33.47-.4,0-.06,0-.18-.33-.53-.26-.27-.43-.45-.73-.6-.49-.25-.95-.23-1.2-.2-.27.04-.58.08-.87.33-.49.41-.58,1.08-.62,1.33-.1.67.08,1.18.18,1.46.22.61.56.96.66,1.06.39.39.77.5,1.53.73.49.15.96.28,1.6.26.58-.02.92-.03,1.28-.27.27-.18.55-.7,1.09-1.73.48-.91.56-1.14.62-1.33.13-.43.27-.88.22-1.4-.09-1.03-.8-1.13-1.24-2.59-.12-.38-.09-.44-.26-1-.19-.63-.29-.74-.58-1.53-.36-.96-.54-1.46-.51-1.99.03-.42.12-.43.15-.93.03-.55-.07-.81-.18-1.46-.17-1.01-.25-1.52-.11-1.93.2-.55.51-.47,1.02-1.27.46-.72.29-.94.62-1.33.51-.61,1.34-.58,2.55-.54.76.03,1.28.15,2.01.33,1.07.26,1.62.39,1.93.79.32.4.38.93.51,1.99.09.73.07,1.28.04,2.39-.04,1.3-.13,1.6-.29,1.86-.22.35-.48.51-.95.8-.54.33-1.09.66-1.75.67-.58,0-.5-.25-1.93-.79-.85-.33-1.14-.33-1.53-.73-.09-.09-.43-.45-.66-1.06-.1-.28-.29-.79-.18-1.46.11-.73.49-1.19.62-1.33.36-.41.73-.53,1.35-.74.76-.25,1.18-.39,1.68-.2.13.05.8.32,1.06,1.13.19.58.14,1.39-.29,1.86-.03.03-.48.52-.87.33-.21-.1-.39-.37-.33-.53Z"/><path class="cls-4" d="m135.25,435.63c.2-.15.51.36.91.21.34-.13.62-.7.62-.7,0,0,.05-.94-.28-1.53-.27-.48-.88-.86-1.51-.77-.38.06-.67.3-1.23.77-.49.41-.77.64-.93,1.05-.2.5-.1.95-.02,1.25.11.45.31.76.89,1.46.89,1.08,1.35,1.62,1.8,1.67.56.07,1.04-.21,1.53-.49,1.09-.63,1.64-1.54,2.18-2.44.63-1.06.68-1.6.64-1.95,0-.09-.03-.25-.11-.47-.19-.55-.55-.97-1.68-1.83-.72-.54-1.84-1.32-2.73-1.25,0,0-.01,0-.01,0-.26.02-.87.1-1.52.49-.45.27-.72.57-.92.78-.39.42-.68.88-.95,1.32,0,0-.11.17-.2.33-.56.97-.99,2.13-1.06,2.32-.57,1.54-.88,2.97-.97,3.56-.02.11-.08.51-.2,1.06,0,0-.07.3-.13.55-.18.67-.46,1.75-1.26,2.65-.55.62-1.14.91-1.54,1.12-.52.26-1.28.64-2.14.56-.77-.07-1.22-.49-2.11-1.32s-1.33-1.24-1.49-2.02c-.21-1.02.2-1.93.34-2.23.22-.48.68-1.46,1.55-1.74.67-.21,1.24.1,1.82.42.33.18.85.47,1.2,1.11.19.35.49.88.28,1.53-.12.39-.45.91-.93,1.05-.42.12-.75-.13-1.21-.49-.67-.52-1.42-1.42-1.19-1.74.1-.15.41-.17.61-.07.41.21.15.84.59,1.18.16.13.41.15.91.21.47.05.57-.02.61-.07.04-.04.1-.15.01-.63-.07-.37-.12-.61-.29-.91-.28-.48-.67-.72-.9-.84-.25-.12-.53-.26-.91-.21-.63.08-1.07.58-1.23.77-.44.5-.57,1.04-.63,1.33-.14.63-.05,1.12-.02,1.25.12.54.38.85.89,1.46.33.4.66.77,1.2,1.11.49.31.78.49,1.21.49.33,0,.84-.28,1.84-.84.89-.49,1.09-.64,1.23-.77.34-.28.69-.59.93-1.05.48-.92-.06-1.39.35-2.86.11-.39.17-.42.32-.98.18-.63.16-.78.33-1.6.21-1.01.33-1.52.64-1.95.25-.34.33-.29.62-.7.32-.44.37-.72.63-1.33.4-.94.6-1.42.94-1.67.46-.35.68-.11,1.53-.49.77-.35.75-.62,1.23-.77.76-.23,1.43.26,2.42.97.62.45.99.84,1.5,1.39.76.82,1.14,1.23,1.19,1.74.05.51-.18.99-.64,1.95-.32.66-.63,1.11-1.25,2.02-.73,1.07-.97,1.26-1.24,1.4-.37.17-.68.16-1.22.14-.63-.03-1.26-.05-1.82-.42-.49-.32-.29-.49-1.19-1.74-.54-.75-.77-.91-.89-1.46-.03-.13-.12-.62.02-1.25.07-.29.19-.82.63-1.33.49-.55,1.05-.72,1.23-.77.52-.14.89-.03,1.52.14.77.21,1.2.33,1.51.77.08.11.5.72.28,1.53-.16.59-.63,1.24-1.24,1.4-.04.01-.68.16-.91-.21-.12-.2-.12-.53.01-.63Z"/><path class="cls-4" d="m154.16,376.48c.09-.24.62.01.87-.33.22-.3.15-.93.15-.93,0,0-.46-.82-1.06-1.13-.48-.25-1.2-.23-1.68.2-.29.26-.4.62-.62,1.33-.19.62-.3.97-.22,1.4.1.53.43.85.66,1.06.33.31.66.46,1.53.73,1.33.4,2,.6,2.41.39.51-.25.76-.76,1.02-1.27.58-1.13.54-2.21.51-3.26-.04-1.24-.29-1.72-.51-1.99-.05-.07-.16-.19-.34-.34-.46-.35-.98-.51-2.39-.59-.89-.05-2.25-.08-2.95.47,0,0-.01,0-.01,0-.2.16-.68.57-1.01,1.26-.23.47-.3.88-.35,1.16-.1.57-.09,1.11-.09,1.63,0,.01,0,.21.01.39.05,1.13.31,2.34.35,2.53.36,1.61.86,2.98,1.09,3.52.04.1.21.47.4,1,0,0,.1.28.18.53.21.65.55,1.72.37,2.92-.13.83-.46,1.4-.69,1.8-.3.51-.73,1.26-1.49,1.67-.68.37-1.28.27-2.48.07s-1.78-.29-2.33-.86c-.72-.74-.87-1.73-.91-2.06-.07-.52-.22-1.6.36-2.33.44-.55,1.08-.61,1.75-.67.37-.03.96-.08,1.6.26.35.18.88.47,1.06,1.13.11.39.11,1.02-.22,1.4-.29.33-.69.31-1.28.27-.84-.06-1.95-.4-1.93-.79,0-.18.25-.37.47-.4.46-.06.57.62,1.13.66.2.02.43-.1.87-.33.42-.22.46-.33.47-.4,0-.06,0-.18-.33-.53-.26-.27-.43-.45-.73-.6-.49-.25-.95-.23-1.2-.2-.27.04-.58.08-.87.33-.49.41-.58,1.08-.62,1.33-.1.67.08,1.18.18,1.46.22.61.56.96.66,1.06.39.39.77.5,1.53.73.49.15.96.28,1.6.26.58-.02.92-.03,1.28-.27.27-.18.55-.7,1.09-1.73.48-.91.56-1.14.62-1.33.13-.43.27-.88.22-1.4-.09-1.03-.8-1.13-1.24-2.59-.12-.38-.09-.44-.26-1-.19-.63-.29-.74-.58-1.53-.36-.96-.54-1.46-.51-1.99.03-.42.12-.43.15-.93.03-.55-.07-.81-.18-1.46-.17-1.01-.25-1.52-.11-1.93.2-.55.51-.47,1.02-1.27.46-.72.29-.94.62-1.33.51-.61,1.34-.58,2.55-.54.76.03,1.28.15,2.01.33,1.07.26,1.62.39,1.93.79.32.4.38.93.51,1.99.09.73.07,1.28.04,2.39-.04,1.3-.13,1.6-.29,1.86-.22.35-.48.51-.95.8-.54.33-1.09.66-1.75.67-.58,0-.5-.25-1.93-.79-.85-.33-1.14-.33-1.53-.73-.09-.09-.43-.45-.66-1.06-.1-.28-.29-.79-.18-1.46.11-.73.49-1.19.62-1.33.36-.41.73-.53,1.35-.74.76-.25,1.18-.39,1.68-.2.13.05.8.32,1.06,1.13.19.58.14,1.39-.29,1.86-.03.03-.48.52-.87.33-.21-.1-.39-.37-.33-.53Z"/></svg>